<?xml version="1.0" encoding="utf-8"?>
<!-- Generator: Adobe Illustrator 23.0.1, SVG Export Plug-In . SVG Version: 6.00 Build 0)  -->
<svg version="1.1" id="Layer_1" xmlns="http://www.w3.org/2000/svg" xmlns:xlink="http://www.w3.org/1999/xlink" x="0px" y="0px"
	 viewBox="0 0 1366 768" style="enable-background:new 0 0 1366 768;" xml:space="preserve">
<style type="text/css">
	.st0{fill:#009245;}
	.st1{fill:#38FF96;}
</style>
<g>
	<g>
		<path class="st0" d="M-309.85,155.29c-0.04-0.1-0.07-0.19-0.1-0.29h50.56c1.68,0,3.21,1,3.85,2.54c0,0.01,0.01,0.02,0.01,0.03
			l77.77,188.93h-50.91c-1.5,0-2.83-0.89-3.4-2.28L-309.85,155.29z"/>
		<path class="st0" d="M-180.91,354h-54.76c-1.69,0-3.22-1.02-3.87-2.59l-77.77-188.93c-1.47-3.57,1.15-7.48,5.01-7.48h1.3
			c0.06,0.22,0.14,0.45,0.23,0.67L-233,344.6c0.73,1.76,2.43,2.9,4.33,2.9h51.32l0.3,0.73C-175.91,350.98-177.94,354-180.91,354z"/>
		<path class="st0" d="M-123.03,291.38l-22.7,55.12h-4.9c-1.81,0-3.5-0.79-4.64-2.17c-0.03-0.04-0.06-0.08-0.09-0.12
			c-3.48-4.25-6.32-8.93-8.45-13.91l-36.99-86.57c-2.11-4.93-1.71-10.5,1.02-15.07c2.27-1.07,4.83-1.65,7.58-1.6l30.92,0.57
			c6.75,0.12,12.79,4.19,15.44,10.39l17.42,40.75L-123.03,291.38z"/>
		<path class="st0" d="M-99.16,353.93h-0.01c-0.17,0.05-0.35,0.07-0.54,0.07h-57.92c-0.57,0-1.13-0.08-1.67-0.22
			c-1.3-0.34-2.48-1.08-3.35-2.13c-2.62-3.19-4.93-6.66-6.86-10.39c0-0.01,0-0.02-0.01-0.03v-0.01c-0.62-1.21-1.21-2.45-1.75-3.72
			l-23.29-54.5l-0.08-0.19l-0.05-0.12l-13.57-31.76c-0.58-1.36-0.97-2.74-1.19-4.11c-0.16-1.05-0.23-2.09-0.2-3.11
			c0.16-5.83,3.35-11.2,8.27-14.18c-2.21,4.56-2.37,9.85-0.34,14.6l36.99,86.57c2.19,5.12,5.11,9.92,8.69,14.26
			c0.08,0.1,0.16,0.19,0.26,0.28c1.3,1.45,3.16,2.26,5.15,2.26h4.49l0.41-1h1.09l22.16-53.83l23,53.83l0.43,1l1.44,3.38
			c0,0.01,0.01,0.02,0.01,0.03C-97.05,352.2-97.86,353.62-99.16,353.93z"/>
		<path class="st0" d="M-128.42,278.77l5.39,12.61l-22.7,55.12h-4.9c-1.81,0-3.5-0.79-4.64-2.17c-0.03-0.04-0.06-0.08-0.09-0.12
			L-128.42,278.77z"/>
		<path class="st0" d="M-66.89,155l-50.98,123.82l-0.53,1.31l-5.39-12.61l0.54-1.3l44.72-108.65c0.07-0.16,0.13-0.31,0.2-0.47
			c0.53-1.28,1.79-2.1,3.18-2.1H-66.89z"/>
		<path class="st0" d="M-92.71,346.5c0.07,0,0.14,0,0.21-0.01v0.01l-0.41,1l-0.97,2.35c-0.91,2.23-2.93,3.77-5.28,4.08h-0.01
			c-0.3,0.05-0.6,0.07-0.91,0.07h-59.31l0.09-0.22l3.52-8.54c1.3,1.45,3.16,2.26,5.15,2.26h4.49l0.41-1h1.09l22.16-53.83l23,53.83
			H-92.71z"/>
		<path class="st0" d="M-16.7,162.37l-74.06,179.89l-0.53,1.31l-26.56-62.15l0.54-1.31L-65.82,155h44.18
			C-17.84,155-15.26,158.86-16.7,162.37z"/>
	</g>
	<path class="st0" d="M-169.51,341.26c0-0.01,0-0.02-0.01-0.03v-0.01c-0.01-0.06-0.03-0.12-0.06-0.18l-40.07-97.33l-38.43-93.36
		c-0.72-1.73-2.41-2.85-4.31-2.85h-52.91c-1.98,0-3.82,0.98-4.92,2.62c-0.97,1.45-1.25,3.23-0.78,4.88h1.05
		c-0.51-1.46-0.31-3.02,0.56-4.32c0.92-1.37,2.44-2.18,4.09-2.18h52.91c1.5,0,2.83,0.88,3.4,2.26l39.54,96.06l14.76,35.87l0.05,0.12
		l0.08,0.19l24.05,58.42c0.48,1.15,0.35,2.41-0.34,3.45c-0.7,1.04-1.81,1.63-3.06,1.63h-3.85l0.41,1h3.44
		c1.56,0,3.02-0.78,3.89-2.08C-169.19,344.18-169.01,342.65-169.51,341.26z"/>
	<path class="st0" d="M-117.31,280.11l-0.54,1.31l26.56,62.15l0.53-1.31L-117.31,280.11z M-123.25,266.22l-15.13-35.4
		c-2.72-6.37-8.96-10.57-15.89-10.69l-30.92-0.57c-5.98-0.09-11.59,2.8-14.94,7.78c-0.47,0.7-0.89,1.44-1.25,2.19
		c0.51-0.32,1.05-0.61,1.6-0.87c0.15-0.26,0.31-0.51,0.48-0.76c3.11-4.61,8.24-7.34,13.79-7.34h0.3l30.92,0.57
		c6.54,0.12,12.42,4.08,14.99,10.09l15.51,36.3l5.39,12.61l0.53-1.31L-123.25,266.22z M-92.5,346.5v-0.01
		c-0.07,0.01-0.14,0.01-0.21,0.01h-53.02l-0.41,1h53.43c0.83,0,1.61-0.37,2.14-1H-92.5z"/>
	<path class="st0" d="M-2.79,150.09c-1.09-1.62-2.9-2.59-4.85-2.59h-53.51c-1.6,0-3.03,0.94-3.64,2.41l-2.1,5.09h1.07l1.75-4.24
		l0.2-0.47c0.46-1.09,1.52-1.79,2.72-1.79h53.51c1.64,0,3.1,0.78,4.02,2.14c0.54,0.82,0.82,1.75,0.82,2.7
		c0,0.62-0.12,1.25-0.36,1.84l-77.18,187.48c-0.96,2.33-3.22,3.84-5.74,3.84h-59.65l-0.41,1h60.06c2.93,0,5.55-1.75,6.66-4.46
		l77.18-187.48C-1.5,153.75-1.7,151.71-2.79,150.09z"/>
</g>
<path d="M425.93,555.18c1.55,0.07,3.1,0.11,4.69,0.11h1.37C429.96,555.37,427.93,555.33,425.93,555.18z"/>
<g>
	<g>
		<path class="st1" d="M145.09,31.83c-0.15-0.37-0.26-0.7-0.37-1.07h186.76c6.21,0,11.86,3.69,14.22,9.38
			c0,0.04,0.04,0.07,0.04,0.11l287.28,697.89H444.96c-5.54,0-10.45-3.29-12.56-8.42L145.09,31.83z"/>
		<path class="st1" d="M621.38,765.85H419.1c-6.24,0-11.89-3.77-14.3-9.57L117.53,58.39c-5.43-13.19,4.25-27.63,18.51-27.63h4.8
			c0.22,0.81,0.52,1.66,0.85,2.47l287.28,697.89c2.7,6.5,8.98,10.71,15.99,10.71h189.57l1.11,2.7
			C639.85,754.69,632.35,765.85,621.38,765.85z"/>
		<path class="st1" d="M835.19,534.53l-83.85,203.61h-18.1c-6.69,0-12.93-2.92-17.14-8.02c-0.11-0.15-0.22-0.3-0.33-0.44
			c-12.85-15.7-23.35-32.99-31.21-51.38L547.91,358.52c-7.79-18.21-6.32-38.79,3.77-55.67c8.39-3.95,17.84-6.09,28-5.91l114.22,2.11
			c24.93,0.44,47.25,15.48,57.03,38.38l64.35,150.53L835.19,534.53z"/>
		<path class="st1" d="M923.36,765.59h-0.04c-0.63,0.18-1.29,0.26-1.99,0.26H707.38c-2.11,0-4.17-0.3-6.17-0.81
			c-4.8-1.26-9.16-3.99-12.37-7.87c-9.68-11.78-18.21-24.6-25.34-38.38c0-0.04,0-0.07-0.04-0.11v-0.04
			c-2.29-4.47-4.47-9.05-6.46-13.74l-86.03-201.32l-0.3-0.7l-0.18-0.44l-50.13-117.32c-2.14-5.02-3.58-10.12-4.4-15.18
			c-0.59-3.88-0.85-7.72-0.74-11.49c0.59-21.54,12.37-41.37,30.55-52.38c-8.16,16.84-8.75,36.39-1.26,53.93l136.64,319.78
			c8.09,18.91,18.88,36.64,32.1,52.68c0.3,0.37,0.59,0.7,0.96,1.03c4.8,5.36,11.67,8.35,19.02,8.35h16.59l1.51-3.69h4.03
			l81.86-198.84l84.96,198.84l1.59,3.69l5.32,12.49c0,0.04,0.04,0.07,0.04,0.11C931.15,759.2,928.16,764.44,923.36,765.59z"/>
		<path class="st1" d="M815.28,487.95l19.91,46.58l-83.85,203.61h-18.1c-6.69,0-12.93-2.92-17.14-8.02
			c-0.11-0.15-0.22-0.3-0.33-0.44L815.28,487.95z"/>
		<path class="st1" d="M1042.56,30.76L854.25,488.14l-1.96,4.84l-19.91-46.58l1.99-4.8L999.57,40.25c0.26-0.59,0.48-1.15,0.74-1.74
			c1.96-4.73,6.61-7.76,11.75-7.76H1042.56z"/>
		<path class="st1" d="M947.19,738.14c0.26,0,0.52,0,0.78-0.04v0.04l-1.51,3.69l-3.58,8.68c-3.36,8.24-10.82,13.93-19.5,15.07h-0.04
			c-1.11,0.18-2.22,0.26-3.36,0.26H700.88l0.33-0.81l13-31.55c4.8,5.36,11.67,8.35,19.02,8.35h16.59l1.51-3.69h4.03l81.86-198.84
			l84.96,198.84H947.19z"/>
		<path class="st1" d="M1227.96,57.98l-273.57,664.5l-1.96,4.84l-98.11-229.58l1.99-4.84l190.2-462.15h163.2
			C1223.75,30.76,1233.28,45.01,1227.96,57.98z"/>
	</g>
	<path class="st1" d="M663.49,718.79c0-0.04,0-0.07-0.04-0.11v-0.04c-0.04-0.22-0.11-0.44-0.22-0.66L515.22,358.44L373.26,13.58
		c-2.66-6.39-8.9-10.53-15.92-10.53H161.9c-7.31,0-14.11,3.62-18.17,9.68c-3.58,5.36-4.62,11.93-2.88,18.03h3.88
		c-1.88-5.39-1.15-11.16,2.07-15.96c3.4-5.06,9.01-8.05,15.11-8.05h195.45c5.54,0,10.45,3.25,12.56,8.35l146.06,354.84l54.52,132.5
		l0.18,0.44l0.3,0.7l88.84,215.8c1.77,4.25,1.29,8.9-1.26,12.74c-2.59,3.84-6.69,6.02-11.3,6.02h-14.22l1.51,3.69h12.71
		c5.76,0,11.16-2.88,14.37-7.68C664.67,729.57,665.34,723.92,663.49,718.79z"/>
	<path class="st1" d="M856.32,492.9l-1.99,4.84l98.11,229.58l1.96-4.84L856.32,492.9z M834.37,441.59l-55.89-130.76
		c-10.05-23.53-33.1-39.04-58.7-39.49l-114.22-2.11c-22.09-0.33-42.81,10.34-55.19,28.74c-1.74,2.59-3.29,5.32-4.62,8.09
		c1.88-1.18,3.88-2.25,5.91-3.21c0.55-0.96,1.15-1.88,1.77-2.81c11.49-17.03,30.44-27.11,50.94-27.11h1.11l114.22,2.11
		c24.16,0.44,45.88,15.07,55.37,37.27l57.29,134.09l19.91,46.58l1.96-4.84L834.37,441.59z M947.96,738.14v-0.04
		c-0.26,0.04-0.52,0.04-0.78,0.04H751.33l-1.51,3.69h197.37c3.07,0,5.95-1.37,7.91-3.69H947.96z"/>
	<path class="st1" d="M1279.34,12.62c-4.03-5.98-10.71-9.57-17.92-9.57h-197.66c-5.91,0-11.19,3.47-13.45,8.9l-7.76,18.8h3.95
		l6.46-15.66l0.74-1.74c1.7-4.03,5.61-6.61,10.05-6.61h197.66c6.06,0,11.45,2.88,14.85,7.91c1.99,3.03,3.03,6.46,3.03,9.97
		c0,2.29-0.44,4.62-1.33,6.8l-285.1,692.54c-3.55,8.61-11.89,14.18-21.2,14.18H751.33l-1.51,3.69h221.86
		c10.82,0,20.5-6.46,24.6-16.47l285.1-692.54C1284.11,26.14,1283.37,18.6,1279.34,12.62z"/>
</g>
</svg>
