<?xml version="1.0" encoding="utf-8"?>
<!-- Generator: Adobe Illustrator 23.0.1, SVG Export Plug-In . SVG Version: 6.00 Build 0)  -->
<svg version="1.1" id="Layer_1" xmlns="http://www.w3.org/2000/svg" xmlns:xlink="http://www.w3.org/1999/xlink" x="0px" y="0px"
	 viewBox="0 0 439.8 513.6" style="enable-background:new 0 0 439.8 513.6;" xml:space="preserve">
<style type="text/css">
	.st0{fill:#6ACB98;}
	.st1{fill:#FFFFFF;}
</style>
<circle class="st0" cx="206.5" cy="249" r="206.5"/>
<g>
	<path d="M-414.5,367.8l-126-99.9l-124.6,99.9l0.5-399.1l62.1,49.9v198l62.1-48.1l62.6,49.1V19l63-50.4L-414.5,367.8z"/>
</g>
<polygon class="st1" points="-521,296.5 -346,166.5 -346,462.5 -521,462.5 "/>
<g>
	<path d="M-352.2,416.6h-124.7l-0.5-397.8l62.6,48.6l0.4,298.8l61.7-49.5l62.5,49.9L-352.2,416.6z"/>
</g>
<g>
	<path d="M-552.9,334.8c-1.9,0-3.7-0.9-4.8-2.4c-2-2.7-1.4-6.4,1.3-8.4l206.9-152.5c1-0.8,2.3-1.2,3.6-1.2c1.9,0,3.7,0.9,4.8,2.4
		c2,2.7,1.4,6.4-1.3,8.4l-206.9,152.5C-550.4,334.4-551.6,334.8-552.9,334.8z"/>
	<path class="st1" d="M-346.1,173.8c0.8,0,1.5,0.4,2,1c0.8,1.1,0.6,2.7-0.5,3.5l-206.9,152.5c-0.4,0.3-1,0.5-1.5,0.5
		c-0.8,0-1.5-0.4-2-1c-0.8-1.1-0.6-2.7,0.5-3.5l206.9-152.5C-347.1,173.9-346.6,173.8-346.1,173.8 M-346.1,166.8c-2,0-4,0.6-5.6,1.9
		l-206.9,152.5c-4.2,3.1-5.1,9.1-2,13.3c1.8,2.4,4.6,3.9,7.6,3.9c2,0,4-0.6,5.6-1.9l206.9-152.5c4.2-3.1,5.1-9.1,2-13.3
		C-340.2,168.2-343.1,166.8-346.1,166.8L-346.1,166.8z"/>
</g>
<g>
	<path class="st1" d="M205.3,295l31.7-23.4v0L205.3,295z"/>
</g>
<polygon class="st1" points="237,271.7 237,271.7 205.3,295 "/>
<path class="st1" d="M368,168.5v0.2h-0.1c-0.1,0-0.2,0-0.3,0L368,168.5z"/>
<polygon class="st1" points="299.5,231.8 299.5,231.8 299.4,231.9 "/>
<g>
	<g>
		<polygon class="st1" points="299.3,231.8 299.6,231.5 299.6,231.9 299.6,231.9 299.5,232 		"/>
		<path class="st0" d="M299.5,231.8L299.5,231.8l-0.1,0.1L299.5,231.8 M299.8,231.3l-0.4,0.3l-0.1,0.1l0.3,0.4l0.1-0.1l0.1-0.1v-0.1
			V231.3L299.8,231.3z"/>
	</g>
	<g>
		<polygon class="st1" points="44,67.1 116.4,10.3 116.4,208.3 173.6,164.1 231.1,209.2 231.1,88.6 304,30.2 304.2,66.7 304.2,66.7 
			304.3,69.4 304.5,219.4 302.4,221 199.5,296.8 173.6,276.2 43.9,380.2 		"/>
		<path class="st0" d="M111.4,20.5v198l62.1-48.1l62.6,49V91l63-50.4l0.1,28.7l0.1,0.1l0.2,147.6l-0.1,0.1L237,263l-37.4,27.6
			l-26.1-20.7L48.9,369.7L49,69.5L111.4,20.5 M121.4,0l-16.2,12.7l-62.4,49l-3.8,3l0,4.9l-0.1,300.2l0,20.8l16.3-13l118.4-94.9
			l19.8,15.7l6,4.8l6.2-4.5l37.4-27.5l62.4-46l0,0l0,0l0.1-0.1l4-3l0-5l-0.2-147.5l0-5.1l-0.1-0.1l-0.1-23.6L309,19.9l-16.2,12.9
			l-63,50.4l-3.8,3V91v107.9l-46.4-36.4l-6.1-4.8l-6.2,4.8l-46,35.6V20.5V0L121.4,0z"/>
	</g>
	<g>
		<polygon class="st1" points="232,285 297.5,236.8 305,235.9 304.8,328.7 361.4,283.3 371.1,291 431.9,339.6 232,503.1 		"/>
		<path class="st0" d="M300,241.5l-0.3,97.6l61.7-49.5l6.6,5.3l55.9,44.7L237,492.5l0-204.9l62.4-46L300,241.5 M310,230.3l-11.2,1.3
			l-0.6,0.1l-2.6,0.3l-2.1,1.6l-62.4,46l-4.1,3l0,5.1l0,204.9l0,21.1l16.3-13.4l186.9-152.9l9.6-7.8l-9.7-7.7l-55.9-44.7l-6.6-5.3
			l-6.3-5l-6.2,5l-45.3,36.4l0.2-76.7L310,230.3L310,230.3z"/>
	</g>
</g>
<g>
	<path class="st1" d="M369.4,180.3l-1.4,1l-68.5,50.5l-0.1,0.1l-62.4,46l-27.6,20.4L193,310.3l-30.4,22.4c-0.5,0.3-1,0.5-1.5,0.5
		c-0.4,0-0.8-0.1-1.1-0.3c-0.2-0.1-0.3-0.2-0.5-0.3c-0.1-0.1-0.1-0.1-0.2-0.2c-0.1-0.1-0.1-0.1-0.2-0.2c-0.8-1.1-0.6-2.7,0.5-3.5
		l33.4-24.6l12.3-9.1l31.7-23.4v0l62.4-46l0.1-0.1l66.9-49.3c0.5-0.3,1-0.5,1.5-0.5c0,0,0,0,0.1,0c0.1,0,0.2,0,0.3,0
		c0.2,0,0.3,0.1,0.5,0.1c0.1,0,0.2,0.1,0.3,0.1c0.2,0.1,0.3,0.2,0.5,0.3c0.1,0.1,0.1,0.1,0.2,0.2c0.1,0.1,0.1,0.2,0.2,0.2
		C370.8,177.9,370.5,179.4,369.4,180.3z"/>
	<polygon class="st1" points="299.5,231.8 299.5,231.8 299.4,231.9 	"/>
	<path class="st1" d="M299.4,231.9l0.1-0.1v0L299.4,231.9z"/>
</g>
</svg>
