<?xml version="1.0" encoding="utf-8"?>
<!-- Generator: Adobe Illustrator 23.0.1, SVG Export Plug-In . SVG Version: 6.00 Build 0)  -->
<svg version="1.1" id="Layer_1" xmlns="http://www.w3.org/2000/svg" xmlns:xlink="http://www.w3.org/1999/xlink" x="0px" y="0px"
	 viewBox="0 0 439.8 513.6" style="enable-background:new 0 0 439.8 513.6;" xml:space="preserve">
<style type="text/css">
	.st0{fill:#6ACB98;}
	.st1{fill:#FFFFFF;}
	.st2{fill:none;}
</style>
<path class="st0" d="M309.3,69.9c-1.7-1-3.4-1.9-5.1-2.8c-1.7-0.9-3.3-1.8-5-2.6l0,4.9l0.1,0.1l0.2,147.6l-0.1,0.1L237,263
	l-37.4,27.6l-26.1-20.7L48.9,369.7L49,115.5c-1.7,2-3.4,4-5,6.1c-1.7,2.2-3.4,4.4-5,6.6C14.5,162.2,0,203.9,0,249
	c0,45,14.4,86.7,38.9,120.7c1.6,2.3,3.3,4.5,5,6.7c0.6,0.8,1.2,1.6,1.9,2.4c1.1,1.3,2.1,2.6,3.2,3.9c37.9,44.6,94.4,73,157.5,73
	c6.9,0,13.8-0.3,20.5-1c1.7-0.2,3.3-0.3,5-0.5c1.7-0.2,3.3-0.4,5-0.7V287.6l62.4-46l0.6-0.1l-0.3,97.6l61.7-49.5l6.6,5.3l32.2,25.8
	c0.6-1.6,1.2-3.3,1.8-5c0.6-1.7,1.1-3.3,1.6-5c6.1-19.5,9.4-40.2,9.4-61.7C413,172.4,371.3,105.5,309.3,69.9z M227,285.3l-17.6,13
	l-16.4,12l-30.4,22.4c-0.5,0.3-1,0.5-1.5,0.5c-0.4,0-0.8-0.1-1.1-0.3c-0.2-0.1-0.3-0.2-0.5-0.3c-0.1-0.1-0.1-0.1-0.2-0.2
	c-0.1-0.1-0.1-0.1-0.2-0.2c-0.8-1.1-0.6-2.7,0.5-3.5l33.4-24.6l3.9-2.9l8.4-6.2l31.7-23.4l62.4-46l0.1-0.1l10-7.4l56.9-41.9
	c0.5-0.3,1-0.5,1.5-0.5c0,0,0,0,0.1,0h0.3c0.2,0,0.3,0.1,0.5,0.1c0.1,0,0.2,0.1,0.3,0.1c0.2,0.1,0.3,0.2,0.5,0.3
	c0.1,0.1,0.1,0.1,0.2,0.2c0.1,0.1,0.1,0.2,0.2,0.2c0.8,1.3,0.5,2.8-0.6,3.7l-1.4,1l-68,50.2l-0.2,0v-0.2l-0.3,0.2l-0.1,0.1l-0.1,0.1
	l0,0.1l0,0l0.1,0.1l-62.4,46L227,285.3z M274.4,53.9c-1.9-0.6-3.8-1.3-5.7-1.9c-19.6-6.2-40.5-9.5-62.2-9.5
	c-30.4,0-59.2,6.6-85.2,18.3c-1.6,0.7-3.3,1.5-4.9,2.3c-1.7,0.8-3.4,1.6-5,2.5v152.8l62.1-48.1l62.6,49V91l43.8-35.1
	C278.1,55.2,276.2,54.6,274.4,53.9z"/>
<g>
	<path d="M-414.5,367.8l-126-99.9l-124.6,99.9l0.5-399.1l62.1,49.9v198l62.1-48.1l62.6,49.1V19l63-50.4L-414.5,367.8z"/>
</g>
<polygon class="st1" points="-521,296.5 -346,166.5 -346,462.5 -521,462.5 "/>
<g>
	<path d="M-352.2,416.6h-124.7l-0.5-397.8l62.6,48.6l0.4,298.8l61.7-49.5l62.5,49.9L-352.2,416.6z"/>
</g>
<g>
	<path d="M-552.9,334.8c-1.9,0-3.7-0.9-4.8-2.4c-2-2.7-1.4-6.4,1.3-8.4l206.9-152.5c1-0.8,2.3-1.2,3.6-1.2c1.9,0,3.7,0.9,4.8,2.4
		c2,2.7,1.4,6.4-1.3,8.4l-206.9,152.5C-550.4,334.4-551.6,334.8-552.9,334.8z"/>
	<path class="st1" d="M-346.1,173.8c0.8,0,1.5,0.4,2,1c0.8,1.1,0.6,2.7-0.5,3.5l-206.9,152.5c-0.4,0.3-1,0.5-1.5,0.5
		c-0.8,0-1.5-0.4-2-1c-0.8-1.1-0.6-2.7,0.5-3.5l206.9-152.5C-347.1,173.9-346.6,173.8-346.1,173.8 M-346.1,166.8c-2,0-4,0.6-5.6,1.9
		l-206.9,152.5c-4.2,3.1-5.1,9.1-2,13.3c1.8,2.4,4.6,3.9,7.6,3.9c2,0,4-0.6,5.6-1.9L-340.5,184c4.2-3.1,5.1-9.1,2-13.3
		C-340.2,168.2-343.1,166.8-346.1,166.8L-346.1,166.8z"/>
</g>
<g>
	<path class="st1" d="M205.3,295l31.7-23.4l0,0L205.3,295z"/>
</g>
<polygon class="st1" points="237,271.7 237,271.7 205.3,295 "/>
<path class="st1" d="M368,168.5v0.2h-0.1c-0.1,0-0.2,0-0.3,0L368,168.5z"/>
<polygon class="st1" points="299.5,231.8 299.5,231.8 299.4,231.9 "/>
<g>
	<g>
		<polygon class="st1" points="299.6,231.5 299.6,231.9 299.5,232 299.3,231.8 299.3,231.8 299.6,231.5 		"/>
		<path class="st2" d="M299.5,231.8L299.5,231.8l-0.1,0.1 M299.5,231.5l-0.1,0.1l-0.1,0.1l0,0.1l0.1,0.1l0.1,0.1l0.1,0.1l0.1-0.1
			l0.1-0.1v-0.6L299.5,231.5z"/>
	</g>
	<g>
		<path class="st1" d="M304.3,69.4l-0.1-2.4l0-0.3L304,30.2l-29.6,23.7l-43.3,34.7v120.6l-57.5-45.1l-57.2,44.2v-198L44,67.1l0,54.5
			l-0.1,254.7v3.9l1.9-1.5l127.8-102.5l25.9,20.6L302.4,221l2.1-1.6L304.3,69.4z M299.4,217.1L237,263l-37.4,27.6l-26.1-20.7
			L48.9,369.7L49,115.5l0-46l62.4-49v198l62.1-48.1l62.6,49V91l43.8-35.1l19.2-15.3l0.1,23.8l0,4.9l0.1,0.1L299.4,217.1L299.4,217.1
			z"/>
		<path class="st0" d="M121.3,0L121.3,0h0.1H121.3z M309.3,69.9v-5.4l-0.1-0.1l-0.1-23.6L309,19.9l-16.2,12.9L268.7,52l-38.9,31.2
			l-3.8,3v112.7l-46.4-36.4l-6.1-4.8l-6.2,4.8l-46,35.6V0.1l-16.1,12.6l-62.4,49l-3.8,3v4.9l0,58.6l-0.1,241.4v20.9l10.1-8l6.2-5
			l118.4-94.9l19.8,15.7l3.5,2.8l8.4-6.2l31.7-23.4l62.4-46l0.1-0.1l10-7.4v-1L309.3,69.9z M299.2,69.3l0.1,0.1l0.2,147.6l-0.1,0.1
			L237,263l-37.4,27.6l-26.1-20.7L48.9,369.7L49,115.5l0-46l62.4-49v198l62.1-48.1l62.6,49V91l43.8-35.1l19.2-15.3l0.1,23.8
			L299.2,69.3z"/>
	</g>
	<g>
		<path class="st1" d="M402,315.7L371.1,291l-9.7-7.7l-56.6,45.4l0.2-92.8l-7.5,0.9L232,285v218.1l199.9-163.5L402,315.7z
			 M237,287.6l62.4-46l0.6-0.1l-0.3,97.6l61.7-49.5l6.6,5.3l32.2,25.8l23.7,18.9L237,492.5V287.6z"/>
		<path class="st0" d="M430.1,331.9l-26.5-21.2l-29.4-23.5l-6.6-5.3l-6.3-5l-6.2,5l-45.3,36.4l0.2-76.7v-11.3l-10,1.2l-0.2,0l-0.2,0
			h0l-0.1,0l-0.1,0.1l-0.1,0.1l0,0.1l0,0l0.1,0.1l-62.4,46l-10,7.4v228.4l16.3-13.4l186.9-152.9l9.6-7.8L430.1,331.9z M237,287.6
			l62.4-46l0.6-0.1l-0.3,97.6l61.7-49.5l6.6,5.3l32.2,25.8l23.7,18.9L237,492.5V287.6z"/>
	</g>
</g>
<g>
	<polygon class="st1" points="300,231.5 299.8,231.6 299.6,231.7 299.5,231.8 299.4,231.9 299.4,231.9 299.3,231.8 299.3,231.8 
		299.3,231.7 299.4,231.6 299.5,231.5 299.8,231.3 299.8,231.5 	"/>
	<polygon class="st1" points="299.5,231.8 299.5,231.8 299.4,231.9 	"/>
	<path class="st1" d="M299.4,231.9l0.1-0.1l0,0L299.4,231.9z"/>
</g>
</svg>
