<?xml version="1.0" encoding="utf-8"?>
<!-- Generator: Adobe Illustrator 19.0.0, SVG Export Plug-In . SVG Version: 6.00 Build 0)  -->
<svg version="1.1" id="wl-logo_xA0_Image_1_" xmlns="http://www.w3.org/2000/svg" xmlns:xlink="http://www.w3.org/1999/xlink"
	 x="0px" y="0px" viewBox="0 0 230.4 214" style="enable-background:new 0 0 230.4 214;" xml:space="preserve">
<style type="text/css">
	.st0{fill:url(#SVGID_1_);}
	.st1{fill:url(#SVGID_2_);}
</style>
<g>
	<linearGradient id="SVGID_1_" gradientUnits="userSpaceOnUse" x1="169.5318" y1="46.1256" x2="60.5318" y2="167.1256">
		<stop  offset="0" style="stop-color:#E29147"/>
		<stop  offset="0.9892" style="stop-color:#66C3A3"/>
	</linearGradient>
	<path class="st0" d="M114.6,26.2c45.3,0.1,79.9,35.8,80.8,78.6c1,47.2-36,81.7-78.5,82.8c-46.3,1.1-84.1-36.2-82.8-83.1
		C35.2,61.1,70.9,26.1,114.6,26.2z M183.5,107.2c0.2-37.5-30.2-68.8-68.6-68.9C76.5,38.2,46,69.4,46,107.1
		c0,37.6,30.4,68.6,68.2,68.8C153.3,176.2,183.6,144.5,183.5,107.2z"/>
	<linearGradient id="SVGID_2_" gradientUnits="userSpaceOnUse" x1="170.1897" y1="46.7182" x2="61.1897" y2="167.7182">
		<stop  offset="0" style="stop-color:#E29147"/>
		<stop  offset="0.9892" style="stop-color:#66C3A3"/>
	</linearGradient>
	<path class="st1" d="M135.1,78.1c-4.4,0-8.7,0-13.1,0c-2.8,12.2-4.9,24.6-7.6,37.2c-3.4-12.7-6.8-25-10.1-37.3c-3.3,0-6.4,0-9.6,0
		c-3.3,12.3-6.6,24.6-9.9,36.8c-0.1,0-0.2,0-0.2,0c-2.8-19.4-5.6-38.8-8.4-58.2c19.2-15.4,48.8-18.5,72.7-3.5
		c25.3,15.9,34,45.2,27.9,69c-12,0.9-24.1,1.7-36.3,2.6c1.8-7.9,3.5-15.7,5.2-23.4c1.7-7.7,3.4-15.5,5.2-23.3c-4.8,0-9.5,0-14.4,0
		c-4.2,19.1-8.5,38.2-12.8,57.4c15.5,1.2,30.8,2.4,46.5,3.5c-11.1,17.8-26.4,28.8-47,31.2c-26.8,3.1-48.2-6.9-62.6-29.8
		c-12.9-20.4-12.5-42-2.2-63.4c0.2,0,0.3,0,0.5-0.1c6.1,19.5,12.2,39,18.3,58.5c4.1,0,8.2,0,12.7,0c3.1-11.6,6.3-23.2,9.6-35.3
		c3.3,12,6.4,23.6,9.6,35.3c4.2,0,8.4,0,12.8,0C126.3,116.4,130.7,97.3,135.1,78.1z"/>
</g>
</svg>
