<?xml version="1.0" encoding="utf-8"?>
<!-- Generator: Adobe Illustrator 23.0.1, SVG Export Plug-In . SVG Version: 6.00 Build 0)  -->
<svg version="1.1" id="Layer_1" xmlns="http://www.w3.org/2000/svg" xmlns:xlink="http://www.w3.org/1999/xlink" x="0px" y="0px"
	 viewBox="0 0 439.8 513.6" style="enable-background:new 0 0 439.8 513.6;" xml:space="preserve">
<style type="text/css">
	.st0{fill:#6ACB98;}
	.st1{fill:#FFFFFF;}
</style>
<path class="st0" d="M279.9,55.9L236.1,91v128.5l-62.6-49l-62.1,48.1v-153c3.3-1.7,6.5-3.3,9.9-4.8c0,0,0.1,0,0.1,0
	c25.9-11.7,54.7-18.3,85.1-18.3c21.7,0,42.6,3.3,62.2,9.5c0.1,0,0.1,0,0.2,0.1C272.6,53.2,276.3,54.5,279.9,55.9z"/>
<path class="st0" d="M309.3,69.9c-3.3-1.9-6.7-3.7-10.1-5.4v4.9h0.1l0.2,147.4v0.1l-0.1,0.1L237,263l-37.4,27.5l-26.1-20.7
	L48.9,369.7L49,115.5c-3.5,4.1-6.8,8.4-10,12.8c0,0-0.1,0.1-0.1,0.1C14.5,162.3,0,204,0,249c0,44.9,14.4,86.6,38.8,120.5
	c0,0,0.1,0.1,0.1,0.1c3.2,4.4,6.5,8.7,10.1,12.9c0,0,0,0,0,0c37.9,44.7,94.4,73,157.5,73c6.9,0,13.8-0.3,20.5-1
	c3.4-0.3,6.7-0.7,10-1.2V287.6l62.4-46l0.6-0.1l-0.3,97.6l61.7-49.5l6.6,5.3l32.2,25.7c1.2-3.3,2.4-6.7,3.4-10c0,0,0,0,0-0.1
	c6.1-19.5,9.3-40.2,9.3-61.5C413,172.4,371.3,105.5,309.3,69.9z M191.4,312.1l-7.4-0.8l13.2-9.8l112.2-83l37.1-27.5l7.4,0.8
	l-53.5,39.6L227,285.7L191.4,312.1z"/>
<path class="st1" d="M368,168.5v0.2h-0.1c-0.1,0-0.2,0-0.3,0L368,168.5z"/>
<g>
	<g>
		<path class="st0" d="M309.3,69.9v-5.6l-0.1-0.1l-0.1-23.6L309,19.9l-16.2,12.9L268.9,52l-0.2,0.1l-38.9,31.1l-3.8,3v112.7
			l-46.4-36.4l-6.1-4.8l-6.2,4.8l-46,35.6V0l-16.2,12.7l-62.4,49l-3.8,3v63.7l-0.1,241v21.1l10.1-8.1l0.1,0l6.1-5l118.4-94.9
			l19.8,15.7l3.9,3.1l112.2-83v-1.5L309.3,69.9z M299.4,217L237,263l-37.4,27.5l-26.1-20.7L48.9,369.7L49,115.5v-46l62.4-49v198
			l62.1-48.1l62.6,49V91l43.8-35.1l19.2-15.3l0.1,23.8v4.9h0.1v0.1l0.2,147.4L299.4,217z"/>
	</g>
	<g>
		<path class="st0" d="M430.2,331.8l-26.5-21.2l-0.1-0.1l-29.3-23.4l-6.6-5.3l-6.3-5l-6.2,5l-45.3,36.4l0.2-76.7v-11.2l-9.6,1.1
			L227,285.7v227.9l16.3-13.4l186.9-152.9l9.6-7.8L430.2,331.8z M237,492.5V287.6l62.4-46l0.6-0.1l-0.3,97.6l61.7-49.5l6.6,5.3
			l32.2,25.7l23.7,18.9L237,492.5z"/>
	</g>
</g>
</svg>
