<?xml version="1.0" encoding="utf-8"?>
<!-- Generator: Adobe Illustrator 23.0.1, SVG Export Plug-In . SVG Version: 6.00 Build 0)  -->
<svg version="1.1" id="Layer_1" xmlns="http://www.w3.org/2000/svg" xmlns:xlink="http://www.w3.org/1999/xlink" x="0px" y="0px"
	 viewBox="0 0 981.29 812.07" style="enable-background:new 0 0 981.29 812.07;" xml:space="preserve">
<style type="text/css">
	.st0{fill:url(#SVGID_1_);}
	.st1{fill:url(#SVGID_2_);}
	.st2{fill:#FFFFFF;}
	.st3{fill:url(#SVGID_3_);}
	.st4{fill:url(#SVGID_4_);}
	.st5{fill:url(#SVGID_5_);}
	.st6{fill:url(#SVGID_6_);}
	.st7{fill:#003C79;}
	.st8{font-family:'TitilliumWeb-Black';}
	.st9{font-size:84.2703px;}
	.st10{fill:#29ABE2;}
</style>
<g>
	<g>
		<g>
			<linearGradient id="SVGID_1_" gradientUnits="userSpaceOnUse" x1="456.7372" y1="831.2452" x2="904.3948" y2="167.5656">
				<stop  offset="0" style="stop-color:#29ABE2"/>
				<stop  offset="0.4427" style="stop-color:#003C79"/>
			</linearGradient>
			<path class="st0" d="M981.29,576.41c0,110.4-75.91,203.06-178.38,228.65c-18.33,4.58-37.52,7.01-57.27,7.01H429.16
				c-3.03,0-3.67-4.25-0.78-5.16c35.76-11.24,69.77-27.28,101.38-47.85c37.93-24.69,71.41-55.21,99.52-90.74
				c28.39-35.87,50.49-75.83,65.7-118.77c15.74-44.42,23.72-91.06,23.72-138.61s-7.98-94.2-23.72-138.61
				c-15.21-42.94-37.31-82.9-65.7-118.77c-20.24-25.58-43.26-48.57-68.73-68.65c-1.12-0.88-0.51-2.68,0.92-2.68h148.16
				c15.77,0,31.07,1.56,45.71,4.51c81.79,16.49,142.37,76.2,142.37,147.35c0,48.93-28.66,92.46-73.17,120.23
				C915.9,386.75,981.29,473.94,981.29,576.41z"/>
		</g>
	</g>
	<g>
		<g>
			<g>
				<linearGradient id="SVGID_2_" gradientUnits="userSpaceOnUse" x1="-79.9473" y1="93.9711" x2="553.9717" y2="727.8902">
					<stop  offset="0" style="stop-color:#29ABE2"/>
					<stop  offset="0.456" style="stop-color:#003C79"/>
				</linearGradient>
				<path class="st1" d="M704.77,410.93c0,187.92-129.21,345.66-303.64,389.2c-31.21,7.8-63.88,11.94-97.5,11.94H7.21
					c-3.98,0-7.21-3.23-7.21-7.21V17.01C0,13.03,3.23,9.8,7.21,9.8h296.42c33.62,0,66.28,4.14,97.5,11.94
					c48.21,12.03,92.96,32.79,132.47,60.49C637.11,154.75,704.77,274.94,704.77,410.93z"/>
			</g>
		</g>
	</g>
	<g>
		<g>
			<g>
				<path class="st2" d="M344.78,385.5h-65.58c-0.55,0-1,0.45-1,1v65.58c0,0.55,0.45,1,1,1h65.58c0.55,0,1-0.45,1-1V386.5
					C345.78,385.95,345.33,385.5,344.78,385.5z M331.09,438.39H292.9v-38.19h38.19V438.39z"/>
			</g>
		</g>
		<g>
			<g>
				<path class="st2" d="M489.29,274.94c-24.16-13.95-49.15,11.03-35.2,35.2c1.61,2.78,3.93,5.11,6.71,6.71
					c24.16,13.95,49.15-11.03,35.2-35.2C494.4,278.87,492.07,276.54,489.29,274.94z M481.96,303.86
					c-10.6,7.37-22.25-4.27-14.87-14.87c0.28-0.41,0.65-0.77,1.06-1.06c10.6-7.37,22.25,4.27,14.87,14.87
					C482.73,303.21,482.37,303.57,481.96,303.86z"/>
			</g>
		</g>
		<g>
			<g>
				<path class="st2" d="M437.29,290.68c-1.37-1.37-3.26-2.15-5.19-2.15c-1.94,0-3.83,0.79-5.2,2.15c-1.37,1.37-2.14,3.26-2.14,5.19
					c0,1.93,0.78,3.83,2.14,5.19c1.37,1.37,3.26,2.15,5.2,2.15c1.93,0,3.83-0.79,5.19-2.15c1.37-1.37,2.15-3.26,2.15-5.19
					S438.66,292.04,437.29,290.68z"/>
			</g>
		</g>
		<g>
			<g>
				<path class="st2" d="M429.17,426.63c4.42,14.33,21.41,23.2,38.04,13.65c2.75-1.58,5.08-3.84,6.68-6.58
					c11.36-19.4-2.46-39.39-20.85-39.39c-11.22,0-20.73,7.43-23.87,17.63h-45.2v-63.64c0-0.55-0.45-1-1-1h-18.1v-44.09l44.38,0
					c0.19,0,0.38-0.07,0.52-0.2c7.06-6.44,2.59-14.49-3.75-14.49h-54.84c-0.55,0-1,0.45-1,1v57.78h-30.85v-45.2
					c14.33-4.42,23.2-21.41,13.65-38.04c-1.58-2.75-3.84-5.08-6.58-6.69c-19.4-11.36-39.39,2.46-39.39,20.85
					c0,11.22,7.43,20.73,17.63,23.87v45.2h-63.64c-0.55,0-1,0.45-1,1v18.1h-44.09v-86.3c14.34-4.41,23.23-21.41,13.68-38.04
					c-1.58-2.75-3.84-5.08-6.58-6.69c-19.4-11.36-39.39,2.46-39.39,20.85c0,11.21,7.42,20.71,17.61,23.86v100c0,0.55,0.45,1,1,1
					h57.78v30.85h-45.2c-4.42-14.33-21.41-23.2-38.04-13.65c-2.75,1.58-5.08,3.84-6.68,6.58c-11.36,19.4,2.46,39.39,20.85,39.39
					c11.22,0,20.73-7.43,23.87-17.63h45.2v63.64c0,0.55,0.45,1,1,1h18.1v44.09h-44.14c-0.34,0-3.3,14.69,2.99,14.69h54.84
					c0.55,0,1-0.45,1-1v-57.78h30.85v45.2c-14.33,4.42-23.2,21.41-13.65,38.04c1.58,2.75,3.84,5.08,6.58,6.69
					c19.4,11.36,39.39-2.46,39.39-20.85c0-11.22-7.43-20.73-17.63-23.87v-45.2h63.64c0.55,0,1-0.45,1-1v-18.1h44.09v86.3
					c-14.34,4.41-23.23,21.41-13.68,38.04c1.58,2.75,3.84,5.08,6.58,6.69c19.4,11.36,39.39-2.46,39.39-20.85
					c0-11.21-7.42-20.71-17.61-23.86v-100c0-0.55-0.45-1-1-1h-57.78v-30.85H429.17z M446.13,411.32
					c10.6-7.37,22.25,4.27,14.87,14.87c-0.28,0.41-0.65,0.77-1.06,1.06c-10.6,7.37-22.25-4.27-14.87-14.87
					C445.36,411.97,445.72,411.61,446.13,411.32z M195.51,264.19c-10.6,7.37-22.25-4.27-14.87-14.87c0.28-0.41,0.65-0.77,1.06-1.06
					c10.6-7.37,22.25,4.27,14.87,14.87C196.28,263.55,195.91,263.91,195.51,264.19z M177.86,427.25
					c-10.6,7.37-22.25-4.27-14.87-14.87c0.28-0.41,0.65-0.77,1.06-1.06c10.6-7.37,22.25,4.27,14.87,14.87
					C178.63,426.6,178.26,426.97,177.86,427.25z M304.03,285.15c-7.37-10.6,4.27-22.25,14.87-14.87c0.41,0.28,0.77,0.65,1.06,1.06
					c7.37,10.6-4.27,22.25-14.87,14.87C304.68,285.92,304.31,285.56,304.03,285.15z M319.96,553.42
					c7.37,10.6-4.27,22.25-14.87,14.87c-0.41-0.28-0.77-0.65-1.06-1.06c-7.37-10.6,4.27-22.25,14.87-14.87
					C319.31,552.65,319.68,553.02,319.96,553.42z M369.28,476.58H254.7V362h114.58V476.58z M428.48,574.38
					c10.6-7.37,22.25,4.27,14.87,14.87c-0.28,0.41-0.65,0.77-1.06,1.06c-10.6,7.37-22.25-4.27-14.87-14.87
					C427.71,575.03,428.07,574.67,428.48,574.38z"/>
			</g>
		</g>
		<g>
			<g>
				<path class="st2" d="M163.18,521.73c-24.16-13.95-49.15,11.04-35.2,35.2c1.61,2.78,3.93,5.11,6.71,6.71
					c24.16,13.95,49.15-11.04,35.2-35.2C168.29,525.66,165.96,523.33,163.18,521.73z M155.84,550.65
					c-10.6,7.37-22.25-4.27-14.87-14.87c0.28-0.41,0.65-0.77,1.06-1.06c10.6-7.37,22.25,4.27,14.87,14.87
					C156.62,550,156.25,550.37,155.84,550.65z"/>
			</g>
		</g>
		<g>
			<g>
				<path class="st2" d="M197.1,537.51c-1.37-1.37-3.26-2.15-5.19-2.15c-1.93,0-3.83,0.79-5.19,2.15c-1.37,1.37-2.15,3.26-2.15,5.19
					c0,1.93,0.79,3.83,2.15,5.19c1.37,1.37,3.26,2.15,5.19,2.15c1.93,0,3.83-0.79,5.19-2.15c1.37-1.37,2.15-3.26,2.15-5.19
					C199.25,540.77,198.46,538.88,197.1,537.51z"/>
			</g>
		</g>
	</g>
	<text transform="matrix(1 0 0 1 556.9971 70.3647)"><tspan x="0" y="0" class="st7 st8 st9">Deft</tspan><tspan x="163.06" y="0" class="st10 st8 st9">Byte</tspan></text>
</g>
</svg>
