<?xml version="1.0" encoding="iso-8859-1"?>
<!-- Generator: Adobe Illustrator 19.0.0, SVG Export Plug-In . SVG Version: 6.00 Build 0)  -->
<svg version="1.1" id="Capa_1" xmlns="http://www.w3.org/2000/svg" xmlns:xlink="http://www.w3.org/1999/xlink" x="0px" y="0px"
	 viewBox="0 0 511.996 511.996" style="enable-background:new 0 0 511.996 511.996;" xml:space="preserve">
<path style="fill:#79A1E8;" d="M319.901,55.502C481.149-5.843,568.053,239.967,449.383,304.789
	c-155.246,84.802-134.02,189.646-267.077,139.236S-38.236,304.494,32.957,147.405C86.785,28.635,161.425,115.792,319.901,55.502z"/>
<path style="fill:#7693DD;" d="M422.556,384.504c0,13.683-11.092,24.774-24.774,24.774h-28.224
	c-13.683,0-24.774-11.092-24.774-24.774V172.515c0-13.683,11.092-24.774,24.774-24.774h28.224c13.683,0,24.774,11.092,24.774,24.774
	V384.504z"/>
<path style="fill:#FFFFFF;" d="M401.796,171.574c0-13.163-10.67-23.833-23.833-23.833H106.015c-13.163,0-24.086,10.67-24.086,23.833
	v155.543h319.867V171.574z"/>
<path style="fill:#4B31AA;" d="M397.782,143.698H233.013c0.013,0.357-0.034,0.738-0.183,1.151c-0.788,2.186-1.372,4.561-1.507,6.936
	h146.642c10.912,0,19.79,8.877,19.79,19.789v89.182c2.696-0.067,5.391-0.138,8.087-0.209v-88.973c0-7.73-3.165-14.734-8.265-19.789
	h0.206c11.431,0,20.731,9.299,20.731,20.73v90.438c2.674,0.464,5.375,0.662,8.087,0.724v-91.161
	C426.599,156.625,413.672,143.698,397.782,143.698z"/>
<path style="fill:#FFFFFF;" d="M81.929,327.116v58.105c0,13.163,10.923,24.057,24.086,24.057h271.948
	c13.163,0,23.833-10.894,23.833-24.057v-58.105H81.929z"/>
<path style="fill:#E1F0FA;" d="M329.98,327.116l-82.162,82.162h130.145c13.163,0,23.833-10.894,23.833-24.057v-58.105H329.98z"/>
<circle style="fill:#FFFFFF;" cx="241.993" cy="360.988" r="13.172"/>
<path style="fill:#4B31AA;" d="M241.99,378.199c-9.493,0-17.215-7.722-17.215-17.214c0-9.492,7.722-17.215,17.215-17.215
	s17.215,7.723,17.215,17.215C259.205,370.477,251.481,378.199,241.99,378.199z M241.99,351.858c-5.033,0-9.128,4.095-9.128,9.128
	c0,5.032,4.094,9.127,9.128,9.127s9.128-4.094,9.128-9.127C251.117,355.953,247.022,351.858,241.99,351.858z"/>
<polygon style="fill:#FFFFFF;" points="312.108,455.691 229.319,455.691 220.538,409.279 303.327,409.279 "/>
<polygon style="fill:#D7ECF9;" points="295.174,455.691 192.024,455.691 203.604,409.279 286.393,409.279 "/>
<path style="fill:#FFFFFF;" d="M335.619,462.276c0-3.637-4.037-6.585-9.015-6.585H169.47c-4.98,0-9.015,2.949-9.015,6.585l0,0
	c0,3.637,4.037,6.585,9.015,6.585h157.134C331.582,468.861,335.619,465.913,335.619,462.276L335.619,462.276z"/>
<rect x="99.898" y="164.648" style="fill:#473CBA;" width="285.776" height="160.402"/>
<g>
	<polygon style="fill:#4B31AA;" points="385.681,164.646 342.16,164.646 181.756,325.051 385.681,325.051 	"/>
	<path style="fill:#4B31AA;" d="M385.681,160.602H232.459c0.334,0.588,0.499,1.295,0.37,2.106c-0.105,0.656-0.226,1.31-0.354,1.963
		c0.341,1.332,0.663,2.673,0.965,4.019h148.197v92.455c0.038,0.011,0.076,0.017,0.115,0.028c2.635,0.797,5.295,1.092,7.972,1.075
		v-97.603C389.725,162.413,387.915,160.602,385.681,160.602z"/>
	<path style="fill:#4B31AA;" d="M326.602,451.647h-11.143l-7.251-38.324h44.602c-0.159-2.691-0.24-5.385-0.199-8.087H106.015
		c-10.864,0-20.042-9.164-20.042-20.013V331.16h265.493c0.621-3.359,1.161-6.717,1.145-10.056c0-0.035,0.008-0.064,0.009-0.098
		H103.947v-67.268c-2.707-0.287-5.404-0.667-8.087-1.184v70.518h-9.887v-71.871c-2.695-0.15-5.39-0.3-8.087-0.43v134.451
		c0,15.494,12.619,28.1,28.13,28.1h92.412l-9.562,38.324H169.47c-7.323,0-13.059,4.668-13.059,10.63
		c0,5.961,5.736,10.63,13.059,10.63h157.134c7.323,0,13.06-4.668,13.06-10.63C339.664,456.315,333.927,451.647,326.602,451.647z
		 M299.977,413.322l7.251,38.324h-8.703l-7.25-38.324H299.977z M206.762,413.322h76.28l7.25,38.324H197.2L206.762,413.322z
		 M326.602,464.819H169.47c-2.989,0-4.972-1.531-4.972-2.542s1.983-2.542,4.972-2.542h157.134c2.989,0,4.973,1.531,4.973,2.542
		S329.592,464.819,326.602,464.819z"/>
</g>
<g>
	<ellipse style="fill:#473CBA;" cx="242.882" cy="503.75" rx="112.485" ry="8.246"/>
	<ellipse style="fill:#473CBA;" cx="420.804" cy="475.889" rx="69.015" ry="8.246"/>
</g>
<polygon style="fill:#F28F20;" points="230.457,104.591 187.572,63.57 187.572,72.622 219.587,104.591 "/>
<polyline style="fill:#E1F0FA;" points="219.587,104.591 219.587,249.571 19.091,249.571 19.091,104.591 "/>
<path style="fill:#4B31AA;" d="M219.587,253.615H19.09c-2.233,0-4.044-1.811-4.044-4.044V104.592c0-2.233,1.811-4.044,4.044-4.044
	s4.044,1.811,4.044,4.044v140.935h192.41V104.592c0-2.233,1.811-4.044,4.044-4.044c2.233,0,4.044,1.811,4.044,4.044v144.979
	C223.63,251.804,221.82,253.615,219.587,253.615z"/>
<rect x="219.591" y="104.589" style="fill:#79A1E8;" width="10.87" height="144.976"/>
<polygon style="fill:#FFFFFF;" points="19.091,249.571 118.131,170.095 219.587,249.571 "/>
<polygon style="fill:#F9D015;" points="219.587,104.611 120.546,7.859 19.091,104.584 19.091,104.591 118.131,200.291 
	219.587,104.591 "/>
<path style="fill:#473CBA;" d="M170.586,50.534V4.255l46.035-0.211c15.439,0,27.954,12.515,27.954,27.954v18.536H170.586z"/>
<path style="fill:#FFFFFF;" d="M71.507,4.044c-15.438,0-27.954,12.515-27.954,27.954v96.232l74.577,72.061l70.536-66.533V31.998
	c0.001-15.439,12.516-27.954,27.955-27.954H71.507z"/>
<polygon style="fill:#E1F0FA;" points="118.131,200.291 188.666,133.757 188.666,37.78 71.354,155.092 "/>
<path style="fill:#4B31AA;" d="M216.627,0.001c-0.002,0-0.004-0.001-0.006-0.001H71.508C53.863,0,39.509,14.354,39.509,31.998V79.53
	L16.3,101.658c-0.801,0.763-1.254,1.83-1.254,2.935c0,1.097,0.445,2.146,1.234,2.908l78.668,76.013l-78.389,62.903
	c-1.338,1.075-1.853,2.877-1.284,4.496c0.569,1.618,2.099,2.702,3.814,2.702h211.367c2.233,0,4.044-1.811,4.044-4.044V104.592
	c0-0.033-0.009-0.065-0.01-0.099c-0.005-0.211-0.025-0.421-0.064-0.628c-0.006-0.036-0.008-0.073-0.015-0.108
	c-0.049-0.229-0.12-0.452-0.208-0.669c-0.027-0.069-0.061-0.132-0.092-0.199c-0.071-0.152-0.15-0.299-0.24-0.442
	c-0.041-0.066-0.082-0.13-0.126-0.193c-0.104-0.147-0.221-0.286-0.346-0.42c-0.038-0.04-0.072-0.085-0.111-0.124
	c-0.013-0.012-0.022-0.027-0.035-0.039l-40.542-38.782v-8.312h51.864c2.233,0,4.044-1.811,4.044-4.044V31.998
	C248.618,14.363,234.277,0.014,216.627,0.001z M39.509,118.7l-14.583-14.091l14.583-13.904C39.509,90.704,39.509,118.7,39.509,118.7
	z M223.63,108.636h2.783v136.891h-2.783V108.636z M47.597,126.513V31.998c0-13.184,10.727-23.91,23.911-23.91l123.767,0.098
	c-6.533,5.862-10.651,14.365-10.651,23.812v100.016l-66.459,62.687L47.597,126.513z M30.59,245.527l70.22-56.349l14.511,14.02
	c0.782,0.756,1.796,1.135,2.809,1.135c0.998,0,1.996-0.367,2.775-1.102l14.959-14.109l72.004,56.404H30.59z M215.543,241.267
	l-73.729-57.756l73.729-69.546V241.267z M213.738,104.551l-21.028,19.834V84.008L213.738,104.551z M240.531,46.49h-47.82V31.998
	c0-13.184,10.726-23.91,23.909-23.91c13.184,0,23.91,10.726,23.91,23.91V46.49H240.531z"/>
<path style="fill:#79A1E8;" d="M466.903,450.394h-81.57c-8.54,0-15.464-6.923-15.464-15.464V278.362
	c0-8.54,6.923-15.464,15.464-15.464h81.57c8.54,0,15.464,6.923,15.464,15.464V434.93
	C482.366,443.47,475.443,450.394,466.903,450.394z"/>
<path style="fill:#E1F0FA;" d="M452.405,450.394h-81.57c-8.54,0-15.464-6.923-15.464-15.464V278.362
	c0-8.54,6.923-15.464,15.464-15.464h81.57c8.54,0,15.464,6.923,15.464,15.464V434.93
	C467.869,443.47,460.945,450.394,452.405,450.394z"/>
<path style="fill:#4B31AA;" d="M466.903,258.855h-96.066c-10.757,0-19.508,8.751-19.508,19.507v156.569
	c0,10.756,8.751,19.507,19.508,19.507h96.066c10.757,0,19.508-8.75,19.508-19.507v-156.57
	C486.409,267.606,477.659,258.855,466.903,258.855z M370.835,446.349c-6.297,0-11.42-5.122-11.42-11.419V278.361
	c0-6.297,5.122-11.419,11.42-11.419h81.569c6.297,0,11.42,5.122,11.42,11.419V434.93c0,6.297-5.122,11.419-11.42,11.419
	L370.835,446.349L370.835,446.349z M478.322,434.93c0,5.839-4.408,10.661-10.071,11.332c2.294-3.199,3.661-7.105,3.661-11.332
	V278.361c0-4.228-1.367-8.134-3.661-11.332c5.662,0.671,10.071,5.493,10.071,11.332V434.93z"/>
<rect x="371.026" y="279.832" style="fill:#FBB03B;" width="81.187" height="150.303"/>
<polygon style="fill:#F29E30;" points="371.028,404.345 371.028,430.132 452.212,430.132 452.212,323.162 "/>
<path style="fill:#4B31AA;" d="M452.212,434.176h-81.184c-2.233,0-4.044-1.811-4.044-4.044V279.834c0-2.233,1.811-4.044,4.044-4.044
	h81.184c2.233,0,4.044,1.811,4.044,4.044v150.299C456.256,432.365,454.445,434.176,452.212,434.176z M375.073,426.088h73.096
	V283.878h-73.096V426.088z"/>
<circle style="fill:#13CECE;" cx="392.397" cy="401.728" r="11.467"/>
<path style="fill:#4B31AA;" d="M392.398,417.241c-8.552,0-15.51-6.958-15.51-15.51c0-8.552,6.958-15.51,15.51-15.51
	s15.509,6.958,15.509,15.51C407.907,410.283,400.95,417.241,392.398,417.241z M392.398,394.308c-4.093,0-7.423,3.33-7.423,7.423
	s3.33,7.423,7.423,7.423c4.092,0,7.422-3.33,7.422-7.423S396.49,394.308,392.398,394.308z"/>
<circle style="fill:#F15A24;" cx="428.911" cy="401.728" r="11.467"/>
<path style="fill:#4B31AA;" d="M428.913,417.241c-8.552,0-15.509-6.958-15.509-15.51c0-8.552,6.957-15.51,15.509-15.51
	s15.51,6.958,15.51,15.51C444.424,410.283,437.466,417.241,428.913,417.241z M428.913,394.308c-4.092,0-7.422,3.33-7.422,7.423
	s3.33,7.423,7.422,7.423c4.093,0,7.423-3.33,7.423-7.423S433.007,394.308,428.913,394.308z"/>
<g>
	<circle style="fill:#FFFFFF;" cx="410.331" cy="323.19" r="13.152"/>
	<path style="fill:#FFFFFF;" d="M386.661,361.51c0-13.071,10.596-23.669,23.669-23.669c13.072,0,23.669,10.596,23.669,23.669
		H386.661z"/>
</g>
<g>
	<path style="fill:#4B31AA;" d="M421.555,336.182c3.646-3.155,5.966-7.804,5.966-12.993c0-9.48-7.712-17.193-17.193-17.193
		s-17.193,7.712-17.193,17.193c0,5.189,2.32,9.838,5.966,12.993c-9.701,4.317-16.486,14.042-16.486,25.327
		c0,2.233,1.811,4.044,4.044,4.044h47.336c2.233,0,4.044-1.811,4.044-4.044C438.042,350.224,431.257,340.5,421.555,336.182z
		 M410.33,314.084c5.021,0,9.105,4.084,9.105,9.105c0,5.021-4.084,9.106-9.105,9.106s-9.105-4.085-9.105-9.106
		C401.224,318.168,405.308,314.084,410.33,314.084z M391.124,357.465c1.869-8.888,9.771-15.58,19.205-15.58
		c9.436,0,17.337,6.692,19.206,15.58H391.124z"/>
	<path style="fill:#4B31AA;" d="M163.293,64.222H68.267c-2.233,0-4.044-1.811-4.044-4.044c0-2.233,1.811-4.044,4.044-4.044h95.026
		c2.233,0,4.044,1.811,4.044,4.044C167.337,62.411,165.526,64.222,163.293,64.222z"/>
	<path style="fill:#4B31AA;" d="M163.293,95.56H68.267c-2.233,0-4.044-1.811-4.044-4.044s1.811-4.044,4.044-4.044h95.026
		c2.233,0,4.044,1.811,4.044,4.044S165.526,95.56,163.293,95.56z"/>
	<path style="fill:#4B31AA;" d="M163.293,126.898H68.267c-2.233,0-4.044-1.811-4.044-4.044c0-2.233,1.811-4.044,4.044-4.044h95.026
		c2.233,0,4.044,1.811,4.044,4.044C167.337,125.088,165.526,126.898,163.293,126.898z"/>
</g>
<g>
</g>
<g>
</g>
<g>
</g>
<g>
</g>
<g>
</g>
<g>
</g>
<g>
</g>
<g>
</g>
<g>
</g>
<g>
</g>
<g>
</g>
<g>
</g>
<g>
</g>
<g>
</g>
<g>
</g>
</svg>
