<svg xmlns="http://www.w3.org/2000/svg" xmlns:xlink="http://www.w3.org/1999/xlink" xmlns:fi="http://pattern.flaticon.com/" x="0" y="0" width="2160" height="1080" viewBox="0 0 2160 1080"><rect x="0px" y="0px" width="100%" height="100%" opacity="1" fill="#ec4a81"/><defs><g transform="matrix(0.221002373890058 0.22100237389005797 -0.22100237389005797 0.221002373890058 83.0024853685832 57.89179984044536)" id="L1_5"><path d="m468.539062 368.777344h-425.078124c-19.859376 0-35.960938-16.101563-35.960938-35.960938v-289.355468c0-19.859376 16.101562-35.960938 35.960938-35.960938h425.078124c19.859376 0 35.960938 16.097656 35.960938 35.957031v289.359375c0 19.859375-16.101562 35.960938-35.960938 35.960938zm0 0" fill="#ccf8ff"/><path d="m313.585938 368.777344h-270.128907c-19.859375 0-35.957031-16.101563-35.957031-35.960938v-289.355468c0-19.859376 16.097656-35.960938 35.957031-35.960938h270.128907zm0 0" fill="#ff929f"/><path d="m131.53125 332.816406v-289.359375c0-19.859375 16.101562-35.957031 35.960938-35.957031h-124.03125c-19.863282 0-35.960938 16.097656-35.960938 35.957031v289.359375c0 19.859375 16.097656 35.960938 35.960938 35.960938h124.027343c-19.855469 0-35.957031-16.101563-35.957031-35.960938zm0 0" fill="#ff737d"/><path d="m224.714844 266.730469h-129.671875c-12.449219 0-22.539063-10.089844-22.539063-22.539063 0-12.449218 10.09375-22.539062 22.539063-22.539062h129.671875c12.449218 0 22.539062 10.089844 22.539062 22.539062 0 12.449219-10.089844 22.539063-22.539062 22.539063zm0 0" fill="#c68d6d"/><path d="m228.511719 232.3125h-137.265625c-10.351563 0-18.742188-8.390625-18.742188-18.742188 0-10.351562 8.390625-18.742187 18.742188-18.742187h137.265625c10.351562 0 18.742187 8.394531 18.742187 18.742187 0 10.351563-8.390625 18.742188-18.742187 18.742188zm0 0" fill="#ffeb99"/><path d="m245.957031 163.738281h-170.828125l-12.953125 26.476563c-5 10.214844 4.203125 21.65625 15.238281 18.902344 5.128907-1.277344 10.457032-2.117188 15.613282-2.117188 21.601562 0 35.054687 11.664062 67.515625 11.664062 32.460937 0 45.917969-11.664062 67.519531-11.664062 5.152344 0 10.484375.839844 15.613281 2.117188 11.035157 2.753906 20.238281-8.6875 15.238281-18.902344zm0 0" fill="#b2e59c"/><path d="m233.71875 178.550781h-146.351562c-12.585938 0-22.789063-10.203125-22.789063-22.789062v-15.054688c0-35.679687 28.921875-64.601562 64.601563-64.601562h62.726562c35.679688 0 64.605469 28.921875 64.605469 64.601562v15.054688c0 12.585937-10.203125 22.789062-22.792969 22.789062zm0 0" fill="#ffdaaa"/><path d="m231.949219 300.171875h-145.484375c-12.085938 0-21.886719-9.800781-21.886719-21.886719v-5.917968c0-8.40625 6.816406-15.222657 15.222656-15.222657h158.816407c8.40625 0 15.222656 6.816407 15.222656 15.222657v5.917968c0 12.085938-9.800782 21.886719-21.890625 21.886719zm0 0" fill="#ffdaaa"/><path d="m420.332031 84.222656c0 18.171875-14.730469 32.902344-32.902343 32.902344-18.171876 0-32.902344-14.730469-32.902344-32.902344s14.730468-32.902344 32.902344-32.902344c18.171874 0 32.902343 14.730469 32.902343 32.902344zm0 0" fill="#b2e59c"/><g fill="#c6c5ca"><path d="m456.742188 184.542969h-95.394532c-8.285156 0-15-6.714844-15-15 0-8.28125 6.714844-15 15-15h95.394532c8.285156 0 15 6.71875 15 15 0 8.285156-6.714844 15-15 15zm0 0"/><path d="m456.742188 243.140625h-95.394532c-8.285156 0-15-6.714844-15-15 0-8.28125 6.714844-15 15-15h95.394532c8.285156 0 15 6.71875 15 15 0 8.285156-6.714844 15-15 15zm0 0"/><path d="m409.042969 301.742188h-47.699219c-8.28125 0-15-6.71875-15-15 0-8.285157 6.71875-15 15-15h47.699219c8.285156 0 15 6.714843 15 15 0 8.28125-6.714844 15-15 15zm0 0"/></g><path d="m168.042969 141.90625c0 4.144531-3.355469 7.5-7.5 7.5-4.140625 0-7.5-3.355469-7.5-7.5 0-4.140625 3.359375-7.5 7.5-7.5 4.144531 0 7.5 3.359375 7.5 7.5zm0 0"/><path d="m139.03125 113.046875c0 4.144531-3.355469 7.5-7.5 7.5-4.140625 0-7.5-3.355469-7.5-7.5 0-4.140625 3.359375-7.5 7.5-7.5 4.144531 0 7.5 3.359375 7.5 7.5zm0 0"/><path d="m197.054688 112.746094c0 4.140625-3.355469 7.5-7.5 7.5-4.140626 0-7.5-3.359375-7.5-7.5 0-4.144532 3.359374-7.5 7.5-7.5 4.144531 0 7.5 3.355468 7.5 7.5zm0 0"/><path d="m468.542969 0h-425.082031c-23.964844 0-43.460938 19.496094-43.460938 43.460938v289.355468c0 23.960938 19.496094 43.460938 43.460938 43.460938h425.078124c23.964844 0 43.460938-19.496094 43.460938-43.460938v-289.359375c0-23.960937-19.496094-43.457031-43.457031-43.457031zm28.457031 332.816406c0 15.691406-12.765625 28.460938-28.460938 28.460938h-425.078124c-15.695313 0-28.460938-12.765625-28.460938-28.460938v-289.355468c0-15.695313 12.765625-28.460938 28.460938-28.460938h262.625v323.023438c0 4.140624 3.359374 7.5 7.5 7.5 4.144531 0 7.5-3.359376 7.5-7.5v-323.023438h147.453124c15.695313 0 28.460938 12.765625 28.460938 28.457031zm0 0"/><path d="m387.429688 124.625c22.28125 0 40.402343-18.125 40.402343-40.402344s-18.125-40.402344-40.402343-40.402344c-22.277344 0-40.402344 18.125-40.402344 40.402344s18.125 40.402344 40.402344 40.402344zm0-65.804688c14.007812 0 25.402343 11.394532 25.402343 25.402344 0 14.007813-11.394531 25.402344-25.402343 25.402344-14.003907 0-25.402344-11.398438-25.402344-25.402344 0-14.007812 11.398437-25.402344 25.402344-25.402344zm0 0"/><path d="m456.742188 147.042969h-6.207032c-4.140625 0-7.5 3.359375-7.5 7.5 0 4.144531 3.359375 7.5 7.5 7.5h6.207032c4.136718 0 7.5 3.363281 7.5 7.5s-3.363282 7.5-7.5 7.5h-95.394532c-4.136718 0-7.5-3.363281-7.5-7.5s3.363282-7.5 7.5-7.5h56.488282c4.140624 0 7.5-3.355469 7.5-7.5 0-4.140625-3.359376-7.5-7.5-7.5h-56.488282c-12.410156 0-22.5 10.09375-22.5 22.5s10.089844 22.5 22.5 22.5h95.394532c12.40625 0 22.5-10.09375 22.5-22.5s-10.09375-22.5-22.5-22.5zm0 0"/><path d="m456.742188 205.640625h-95.394532c-12.410156 0-22.5 10.09375-22.5 22.5 0 12.410156 10.089844 22.5 22.5 22.5h95.394532c12.40625 0 22.5-10.089844 22.5-22.5 0-12.40625-10.09375-22.5-22.5-22.5zm0 30h-95.394532c-4.136718 0-7.5-3.363281-7.5-7.5 0-4.132813 3.363282-7.5 7.5-7.5h95.394532c4.136718 0 7.5 3.367187 7.5 7.5 0 4.136719-3.363282 7.5-7.5 7.5zm0 0"/><path d="m409.042969 264.242188h-47.699219c-12.40625 0-22.5 10.09375-22.5 22.5s10.09375 22.5 22.5 22.5h47.699219c12.40625 0 22.5-10.09375 22.5-22.5s-10.09375-22.5-22.5-22.5zm0 30h-47.699219c-4.132812 0-7.5-3.363282-7.5-7.5 0-4.136719 3.367188-7.5 7.5-7.5h47.699219c4.136719 0 7.5 3.363281 7.5 7.5 0 4.132812-3.363281 7.5-7.5 7.5zm0 0"/><path d="m258.742188 172.804688c3.320312-4.859376 5.269531-10.726563 5.269531-17.042969v-15.054688c0-39.757812-32.347657-72.101562-72.105469-72.101562h-62.726562c-39.757813 0-72.101563 32.34375-72.101563 72.101562v15.054688c0 6.3125 1.945313 12.183593 5.265625 17.042969l-6.90625 14.113281c-3.617188 7.386719-4.609375 22.292969 9.601562 28.015625.253907 4.9375 1.882813 9.519531 4.503907 13.371094-7.476563 13.140624-3.980469 22.480468-2.925781 25.574218-5.769532 4.125-9.539063 10.871094-9.539063 18.488282v5.917968c0 16.203125 13.183594 29.386719 29.386719 29.386719h145.484375c16.207031 0 29.390625-13.183594 29.390625-29.386719v-5.917968c0-7.140626-3.316406-13.519532-8.480469-17.6875 1.242187-3.328126 4.519531-15.28125-2.640625-26.378907 2.511719-3.691406 4.101562-8.054687 4.453125-12.753906 16.269531-4.679687 14.59375-21.242187 10.980469-28.628906zm-6.5625 20.707031c2.941406 6.507812-1.425782 9.671875-6.691407 8.332031-6.21875-1.585938-12.09375-2.34375-17.425781-2.34375-10.777344 0-19.507812 2.550781-28.746094 5.25-10.800781 3.152344-21.96875 6.414062-38.773437 6.414062-15.285157 0-26.140625-2.765624-35.953125-5.597656-3.980469-1.144531-8.136719 1.148438-9.285156 5.128906-1.148438 3.980469 1.144531 8.136719 5.125 9.285157 6.375 1.839843 13.167968 3.648437 21.183593 4.832031h-50.367187c-5.3125 0-9.765625-3.707031-10.933594-8.671875 4.625-1.082031 8.902344-1.636719 12.714844-1.636719 4.140625 0 7.5-3.359375 7.5-7.5 0-4.144531-3.359375-7.5-7.5-7.5-5.335938 0-11.140625 1.050782-17.429688 2.339844-7.292968 1.492188-8.796875-3.480469-6.6875-8.332031l5.160156-10.542969c4.015626 1.972656 8.527344 3.082031 13.296876 3.082031h146.351562c4.769531 0 9.28125-1.109375 13.300781-3.082031zm-23.667969 31.300781h-49.011719c9.355469-1.382812 30.457031-10.3125 48.558594-10.3125 3.46875 0 7.316406.460938 11.460937 1.355469-1.058593 5.105469-5.589843 8.957031-11.007812 8.957031zm-156.433594-84.105469c0-31.484375 25.617187-57.101562 57.105469-57.101562h62.722656c31.488281 0 57.105469 25.617187 57.105469 57.101562v15.054688c0 8.429687-6.859375 15.289062-15.289063 15.289062h-146.355468c-8.429688 0-15.289063-6.859375-15.289063-15.289062zm174.261719 137.578125c0 7.933594-6.457032 14.386719-14.390625 14.386719h-145.484375c-7.933594 0-14.386719-6.453125-14.386719-14.386719v-5.917968c0-4.257813 3.460937-7.722657 7.722656-7.722657h158.816407c4.257812 0 7.722656 3.464844 7.722656 7.722657zm-7.722656-28.640625h-157.589844c-.671875-1.722656-2.433594-6.46875.371094-11.757812 3.042968 1.234375 6.367187 1.925781 9.847656 1.925781h137.265625c3.484375 0 6.804687-.691406 9.847656-1.925781 2.652344 5.132812 1.046875 10.035156.375 11.761719-.039063 0-.078125-.003907-.117187-.003907zm0 0"/></g><g transform="matrix(0.20407038326298846 -0.20407038326298843 0.20407038326298843 0.20407038326298846 138.51596376934992 -7.105427357601002e-15)" id="L1_7"><path d="M450,64H62c-17.673,0-32,14.327-32,32v288h452V96C482,78.327,467.673,64,450,64z" fill="#ffffff"/><path d="M460,448H52c-23.196,0-42-18.804-42-42v-22h492v22C502,429.196,483.196,448,460,448z" fill="#72d8ff"/><rect x="70px" y="116px" width="164px" height="216px" fill="#4dbaf6"/><rect x="278px" y="116px" width="164px" height="216px" fill="#ff5d5d"/><path d="M482,296c-2.63,0-5.21,1.069-7.07,2.93c-1.86,1.86-2.93,4.44-2.93,7.07s1.07,5.21,2.93,7.069  c1.86,1.86,4.44,2.931,7.07,2.931s5.21-1.07,7.07-2.931c1.86-1.859,2.93-4.439,2.93-7.069s-1.07-5.21-2.93-7.07S484.63,296,482,296z  "/><path d="M502,374h-10v-28.5c0-5.522-4.477-10-10-10s-10,4.478-10,10V374H40V96c0-12.131,9.869-22,22-22h388c12.131,0,22,9.869,22,22  v168c0,5.522,4.477,10,10,10s10-4.478,10-10V96c0-23.159-18.841-42-42-42H62c-23.159,0-42,18.841-42,42v278H10  c-5.523,0-10,4.478-10,10v22c0,28.673,23.327,52,52,52h408c28.673,0,52-23.327,52-52v-22C512,378.478,507.523,374,502,374z M492,406  c0,17.645-14.355,32-32,32H52c-17.645,0-32-14.355-32-32v-12h472V406z"/><path d="M289.667,406h-67.333c-5.523,0-10,4.478-10,10s4.477,10,10,10h67.333c5.523,0,10-4.478,10-10S295.189,406,289.667,406z"/><path d="M105.894,106H70c-5.523,0-10,4.478-10,10v216c0,5.522,4.477,10,10,10h164c5.523,0,10-4.478,10-10V116  c0-5.522-4.477-10-10-10h-35.894c-5.523,0-10,4.478-10,10s4.477,10,10,10H224v196H80V126h25.894c5.523,0,10-4.478,10-10  S111.417,106,105.894,106z"/><path d="M152,106c-2.63,0-5.21,1.069-7.07,2.93c-1.86,1.86-2.93,4.44-2.93,7.07s1.07,5.21,2.93,7.069  c1.86,1.86,4.44,2.931,7.07,2.931s5.21-1.07,7.07-2.931c1.86-1.859,2.93-4.439,2.93-7.069s-1.07-5.21-2.93-7.07S154.63,106,152,106z  "/><path d="M120.594,174h-14.701c-5.523,0-10,4.478-10,10v39.956V264c0,5.522,4.477,10,10,10s10-4.478,10-10v-30.044h4.701  c16.53,0,29.978-13.448,29.978-29.979C150.572,187.448,137.124,174,120.594,174z M120.594,213.956h-4.701V194h4.701  c5.502,0,9.978,4.476,9.978,9.978S126.096,213.956,120.594,213.956z"/><path d="M182.007,213.978h7.555c5.523,0,10-4.478,10-10s-4.477-10-10-10h-7.555c-13.788,0-25.006,11.218-25.006,25.006  s11.218,25.006,25.006,25.006h1.094c2.76,0,5.005,2.245,5.005,5.005S185.861,254,183.101,254h-16.1c-5.523,0-10,4.478-10,10  s4.477,10,10,10h16.1c13.788,0,25.005-11.218,25.005-25.006s-11.217-25.005-25.005-25.005h-1.094c-2.76,0-5.006-2.246-5.006-5.006  S179.247,213.978,182.007,213.978z"/><path d="M317.528,273.594c0.942,0.277,1.892,0.409,2.826,0.409c4.322-0.001,8.308-2.825,9.589-7.182l2.232-7.589h23.408l2.232,7.589  c1.558,5.299,7.117,8.332,12.416,6.772c5.298-1.559,8.33-7.117,6.772-12.415l-23.529-80c-1.252-4.256-5.158-7.179-9.594-7.179  s-8.342,2.923-9.594,7.179l-23.53,80C309.198,266.477,312.23,272.035,317.528,273.594z M349.701,239.232h-11.643l5.822-19.793  L349.701,239.232z"/><path d="M399.65,274c5.523,0,10-4.478,10-10v-54.277c0-5.522-4.477-10-10-10s-10,4.478-10,10V264  C389.65,269.522,394.127,274,399.65,274z"/><path d="M442,106H278c-5.523,0-10,4.478-10,10v216c0,5.522,4.477,10,10,10h164c5.523,0,10-4.478,10-10V116  C452,110.478,447.523,106,442,106z M432,322H288V126h144V322z"/></g></defs><g fi:class="KUsePattern" opacity="0.02"><pattern id="pattern_L1_5" width="350" height="350" patternUnits="userSpaceOnUse"><use xlink:href="#L1_5" x="-350" y="-350"/><use xlink:href="#L1_5" x="0" y="-350"/><use xlink:href="#L1_5" x="350" y="-350"/><use xlink:href="#L1_5" x="-350" y="0"/><use xlink:href="#L1_5" x="0" y="0"/><use xlink:href="#L1_5" x="350" y="0"/><use xlink:href="#L1_5" x="-350" y="350"/><use xlink:href="#L1_5" x="0" y="350"/><use xlink:href="#L1_5" x="350" y="350"/></pattern><rect x="0" y="0" width="100%" height="100%" fill="url(#pattern_L1_5)"/></g><g fi:class="KUsePattern" opacity="0.02"><pattern id="pattern_L1_7" width="350" height="350" patternUnits="userSpaceOnUse"><use xlink:href="#L1_7" x="-350" y="-350"/><use xlink:href="#L1_7" x="0" y="-350"/><use xlink:href="#L1_7" x="350" y="-350"/><use xlink:href="#L1_7" x="-350" y="0"/><use xlink:href="#L1_7" x="0" y="0"/><use xlink:href="#L1_7" x="350" y="0"/><use xlink:href="#L1_7" x="-350" y="350"/><use xlink:href="#L1_7" x="0" y="350"/><use xlink:href="#L1_7" x="350" y="350"/></pattern><rect x="0" y="0" width="100%" height="100%" fill="url(#pattern_L1_7)"/></g></svg>