<?xml version="1.0" encoding="iso-8859-1"?>
<!-- Generator: Adobe Illustrator 19.0.0, SVG Export Plug-In . SVG Version: 6.00 Build 0)  -->
<svg version="1.1" id="Capa_1" xmlns="http://www.w3.org/2000/svg" xmlns:xlink="http://www.w3.org/1999/xlink" x="0px" y="0px"
	 viewBox="0 0 512 512" style="enable-background:new 0 0 512 512;" xml:space="preserve">
<path style="fill:#F4F5F5;" d="M466.581,15.412v353.177c0,8.516-6.895,15.412-15.412,15.412H60.831
	c-8.516,0-15.412-6.895-15.412-15.412V15.412C45.419,6.895,52.315,0,60.831,0h390.338C459.685,0,466.581,6.895,466.581,15.412z"/>
<path style="fill:#E8E9E9;" d="M202.839,368.588V15.412C202.839,6.895,209.734,0,218.25,0H60.831
	c-8.516,0-15.412,6.895-15.412,15.412v353.177c0,8.516,6.895,15.412,15.412,15.412H218.25
	C209.734,384,202.839,377.105,202.839,368.588z"/>
<rect x="225.982" y="368.528" transform="matrix(-0.0112 0.9999 -0.9999 -0.0112 641.7996 133.372)" style="fill:#E2E2E3;" width="57.949" height="30.967"/>
<path style="fill:#C9CED1;" d="M255.137,397.641l0.477-42.613l-15.806-0.177l-0.648,57.951l30.966,0.347l0.002-0.177l0,0
	C261.755,412.878,255.044,406.014,255.137,397.641z"/>
<circle style="fill:#DCDDDD;" cx="256" cy="227.097" r="136.258"/>
<path style="fill:#BECECD;" d="M201.187,212.724c0-52.398,29.585-97.882,72.956-120.68c-5.936-0.79-11.991-1.205-18.143-1.205
	c-75.252,0-136.258,61.006-136.258,136.258S180.748,363.355,256,363.355c22.853,0,44.387-5.635,63.302-15.578
	C252.629,338.905,201.187,281.824,201.187,212.724z"/>
<circle style="fill:#8ACAEB;" cx="256" cy="227.097" r="107.355"/>
<path style="fill:#8BB1EA;" d="M256,119.742c-35.675,0-67.278,17.404-86.799,44.18c17.726-12.924,39.557-20.555,63.175-20.555
	c59.293,0,107.355,48.062,107.355,107.355c0,23.618-7.632,45.449-20.555,63.175c26.776-19.521,44.18-51.125,44.18-86.799
	C363.355,167.804,315.293,119.742,256,119.742z"/>
<path style="fill:#FF395E;" d="M466.581,15.412v45.492H263.969l-3.902-20.552c-0.692-3.644-3.881-6.286-7.587-6.286h-89.992
	c-3.706,0-6.895,2.643-7.587,6.286l-3.902,20.552H45.419V15.412C45.419,6.895,52.315,0,60.831,0h390.338
	C459.685,0,466.581,6.895,466.581,15.412z"/>
<path style="fill:#B12E65;" d="M154.901,40.351c0.692-3.644,3.881-6.286,7.587-6.286h40.351V15.412
	C202.839,6.895,209.734,0,218.25,0H60.831c-8.516,0-15.412,6.895-15.412,15.412v45.492h105.579L154.901,40.351z"/>
<path style="fill:#C9CACA;" d="M347.809,40.351l3.902,20.552h-87.742l-3.902-20.552c-0.692-3.644-3.881-6.286-7.587-6.286h87.742
	C343.928,34.065,347.117,36.707,347.809,40.351z"/>
<circle style="fill:#842D65;" cx="73.29" cy="29.935" r="7.742"/>
<circle style="fill:#EAB430;" cx="98.065" cy="29.935" r="7.742"/>
<circle style="fill:#C5D65C;" cx="122.839" cy="29.935" r="7.742"/>
<g>
	<path style="fill:#6BBBE3;" d="M220.387,267.355c-1.981,0-3.963-0.756-5.475-2.267l-32.516-32.516
		c-3.023-3.025-3.023-7.926,0-10.949l34.581-34.581c3.025-3.022,7.926-3.022,10.949,0c3.023,3.025,3.023,7.926,0,10.949
		l-29.107,29.106l27.042,27.041c3.023,3.024,3.023,7.926,0,10.949C224.35,266.599,222.368,267.355,220.387,267.355z"/>
	<path style="fill:#6BBBE3;" d="M291.613,267.355c-1.981,0-3.963-0.756-5.475-2.267c-3.023-3.025-3.023-7.926,0-10.949
		l27.043-27.042l-29.107-29.106c-3.023-3.025-3.023-7.926,0-10.949c3.025-3.022,7.926-3.022,10.949,0l34.581,34.581
		c3.023,3.025,3.023,7.926,0,10.949l-32.516,32.516C295.576,266.599,293.594,267.355,291.613,267.355z"/>
	<path style="fill:#6BBBE3;" d="M243.614,269.938c-0.823,0-1.659-0.132-2.482-0.41c-4.051-1.37-6.222-5.764-4.853-9.815
		l23.742-70.194c1.37-4.052,5.763-6.223,9.815-4.853c4.051,1.37,6.222,5.764,4.853,9.815l-23.742,70.194
		C249.855,267.902,246.842,269.938,243.614,269.938z"/>
</g>
<path style="fill:#FF395E;" d="M85.677,127.484H72.258c-4.277,0-7.742-3.465-7.742-7.742c0-4.277,3.465-7.742,7.742-7.742h13.419
	c4.277,0,7.742,3.465,7.742,7.742C93.419,124.019,89.954,127.484,85.677,127.484z"/>
<path style="fill:#7CA1D8;" d="M137.29,127.484h-30.968c-4.277,0-7.742-3.465-7.742-7.742c0-4.277,3.465-7.742,7.742-7.742h30.968
	c4.277,0,7.742,3.465,7.742,7.742C145.032,124.019,141.567,127.484,137.29,127.484z"/>
<path style="fill:#F3D064;" d="M111.484,176H80.516c-4.277,0-7.742-3.465-7.742-7.742c0-4.277,3.465-7.742,7.742-7.742h30.968
	c4.277,0,7.742,3.465,7.742,7.742C119.226,172.535,115.761,176,111.484,176z"/>
<path style="fill:#FF395E;" d="M111.484,302.968H80.516c-4.277,0-7.742-3.465-7.742-7.742s3.465-7.742,7.742-7.742h30.968
	c4.277,0,7.742,3.465,7.742,7.742S115.761,302.968,111.484,302.968z"/>
<path style="fill:#7CA1D8;" d="M146.581,352.516H80.516c-4.277,0-7.742-3.465-7.742-7.742c0-4.277,3.465-7.742,7.742-7.742h66.065
	c4.277,0,7.742,3.465,7.742,7.742C154.323,349.051,150.857,352.516,146.581,352.516z"/>
<g>
	<path style="fill:#C5D65C;" d="M90.839,233.806H72.258c-4.277,0-7.742-3.465-7.742-7.742c0-4.277,3.465-7.742,7.742-7.742h18.581
		c4.277,0,7.742,3.465,7.742,7.742C98.581,230.341,95.115,233.806,90.839,233.806z"/>
	<path style="fill:#C5D65C;" d="M439.742,127.484h-13.419c-4.277,0-7.742-3.465-7.742-7.742c0-4.277,3.465-7.742,7.742-7.742h13.419
		c4.277,0,7.742,3.465,7.742,7.742C447.484,124.019,444.019,127.484,439.742,127.484z"/>
</g>
<path style="fill:#7CA1D8;" d="M405.677,127.484H374.71c-4.277,0-7.742-3.465-7.742-7.742c0-4.277,3.465-7.742,7.742-7.742h30.968
	c4.277,0,7.742,3.465,7.742,7.742C413.419,124.019,409.954,127.484,405.677,127.484z"/>
<path style="fill:#C5D65C;" d="M431.484,176h-30.968c-4.277,0-7.742-3.465-7.742-7.742c0-4.277,3.465-7.742,7.742-7.742h30.968
	c4.277,0,7.742,3.465,7.742,7.742C439.226,172.535,435.76,176,431.484,176z"/>
<path style="fill:#7CA1D8;" d="M431.484,302.968h-30.968c-4.277,0-7.742-3.465-7.742-7.742s3.465-7.742,7.742-7.742h30.968
	c4.277,0,7.742,3.465,7.742,7.742S435.76,302.968,431.484,302.968z"/>
<path style="fill:#F3D064;" d="M431.484,352.516h-66.065c-4.277,0-7.742-3.465-7.742-7.742c0-4.277,3.465-7.742,7.742-7.742h66.065
	c4.277,0,7.742,3.465,7.742,7.742C439.226,349.051,435.76,352.516,431.484,352.516z"/>
<path style="fill:#FF395E;" d="M439.742,233.806h-18.581c-4.277,0-7.742-3.465-7.742-7.742c0-4.277,3.465-7.742,7.742-7.742h18.581
	c4.277,0,7.742,3.465,7.742,7.742C447.484,230.341,444.019,233.806,439.742,233.806z"/>
<path style="fill:#717483;" d="M280.774,414.059v88.526c0,5.203-4.212,9.414-9.414,9.414h-32.785c-5.203,0-9.414-4.212-9.414-9.414
	v-88.526c0-5.203,4.212-9.414,9.414-9.414h32.785C276.563,404.645,280.774,408.857,280.774,414.059z"/>
<path style="fill:#4C5574;" d="M253.186,502.586v-88.526c0-5.203,4.212-9.414,9.414-9.414h-24.025c-5.203,0-9.414,4.212-9.414,9.414
	v88.526c0,5.203,4.212,9.414,9.414,9.414H262.6C257.398,512,253.186,507.788,253.186,502.586z"/>
<g>
</g>
<g>
</g>
<g>
</g>
<g>
</g>
<g>
</g>
<g>
</g>
<g>
</g>
<g>
</g>
<g>
</g>
<g>
</g>
<g>
</g>
<g>
</g>
<g>
</g>
<g>
</g>
<g>
</g>
</svg>
