<?xml version="1.0" encoding="iso-8859-1"?>
<!-- Generator: Adobe Illustrator 19.0.0, SVG Export Plug-In . SVG Version: 6.00 Build 0)  -->
<svg version="1.1" id="Capa_1" xmlns="http://www.w3.org/2000/svg" xmlns:xlink="http://www.w3.org/1999/xlink" x="0px" y="0px"
	 viewBox="0 0 512.003 512.003" style="enable-background:new 0 0 512.003 512.003;" xml:space="preserve">
<path style="fill:#79A1E8;" d="M87.285,299.773c-139-41.032-83.917-299.704,76.288-261.56
	c155.574,37.042,268.684-97.116,320.8,6.476c20.318,40.387,10.211,109.58-102.053,232.121
	C284.418,383.674,254.022,348.991,87.285,299.773z"/>
<g>
	<ellipse style="fill:#473CBA;" cx="427.414" cy="498.048" rx="84.589" ry="9.381"/>
	<ellipse style="fill:#473CBA;" cx="84.589" cy="498.048" rx="84.589" ry="9.381"/>
	<ellipse style="fill:#473CBA;" cx="227.07" cy="416.781" rx="159.984" ry="9.381"/>
</g>
<path style="fill:#7693DD;" d="M410.335,310.461c0,13.749-11.146,24.894-24.894,24.894h-28.361
	c-13.749,0-24.894-11.146-24.894-24.894V97.439c0-13.749,11.146-24.894,24.894-24.894h28.361c13.749,0,24.894,11.146,24.894,24.894
	V310.461z"/>
<g>
	<path style="fill:#FFFFFF;" d="M389.474,96.494c0-13.227-10.722-23.949-23.949-23.949H92.253
		c-13.227,0-24.203,10.722-24.203,23.949v156.3h321.425L389.474,96.494L389.474,96.494z"/>
	<path style="fill:#FFFFFF;" d="M68.05,252.794v58.388c0,13.227,10.976,24.174,24.203,24.174h273.272
		c13.227,0,23.949-10.947,23.949-24.174v-58.388H68.05z"/>
</g>
<path style="fill:#E1F0FA;" d="M286.566,252.794l-82.562,82.562h161.52c13.227,0,23.949-10.947,23.949-24.174v-58.388H286.566z"/>
<circle style="fill:#FFFFFF;" cx="228.889" cy="286.825" r="13.236"/>
<path style="fill:#4B31AA;" d="M228.89,304.126c-9.539,0-17.299-7.76-17.299-17.298s7.761-17.299,17.299-17.299
	s17.298,7.761,17.298,17.299S238.428,304.126,228.89,304.126z M228.89,277.656c-5.058,0-9.172,4.115-9.172,9.172
	c0,5.057,4.115,9.171,9.172,9.171s9.171-4.114,9.171-9.171C238.061,281.771,233.947,277.656,228.89,277.656z"/>
<polygon style="fill:#FFFFFF;" points="299.349,381.995 216.157,381.995 207.334,335.356 290.526,335.356 "/>
<polygon style="fill:#D7ECF9;" points="282.333,381.995 178.681,381.995 190.317,335.356 273.509,335.356 "/>
<path style="fill:#FFFFFF;" d="M322.975,388.612c0-3.655-4.056-6.617-9.059-6.617h-157.9c-5.004,0-9.06,2.963-9.06,6.617l0,0
	c0,3.655,4.056,6.617,9.06,6.617h157.899C318.919,395.229,322.975,392.267,322.975,388.612L322.975,388.612z"/>
<g>
	<path style="fill:#4B31AA;" d="M347.741,331.292H97.973c0.048,2.723-0.116,5.43-0.385,8.127h87.528l-9.609,38.511h-19.491
		c-7.359,0-13.123,4.691-13.123,10.682c0,5.989,5.764,10.681,13.123,10.681h157.899c7.359,0,13.124-4.691,13.124-10.681
		s-5.765-10.682-13.124-10.682h-11.198l-7.286-38.511h53.514C348.51,336.715,348.068,334.01,347.741,331.292z M193.492,339.419
		h25.869h50.781l7.287,38.511h-56.952h-36.594L193.492,339.419z M313.914,386.058c3.004,0,4.997,1.538,4.997,2.555
		c0,1.017-1.993,2.554-4.997,2.554H156.016c-3.003,0-4.996-1.537-4.996-2.554c0-1.017,1.993-2.555,4.996-2.555H313.914z
		 M294.445,377.931h-8.744l-7.287-38.511h8.745L294.445,377.931z"/>
	<path style="fill:#4B31AA;" d="M349.957,248.862c0.002-0.045,0.009-0.086,0.011-0.131H154.399c0.015,0.628-0.074,1.261-0.291,1.877
		c-0.725,2.065-1.365,4.163-2.028,6.249h198.968C350.399,254.245,349.86,251.607,349.957,248.862z"/>
</g>
<rect x="86.113" y="89.529" style="fill:#473CBA;" width="287.167" height="161.183"/>
<g>
	<polygon style="fill:#4B31AA;" points="373.281,89.533 329.959,89.533 168.773,250.718 373.281,250.718 	"/>
	<path style="fill:#4B31AA;" d="M385.441,68.481H92.253c-15.587,0-28.267,12.567-28.267,28.013v92.318
		c2.706,0.145,5.415,0.21,8.127,0.216V96.494c0-10.965,9.035-19.886,20.14-19.886h273.272c10.965,0,19.886,8.921,19.886,19.886
		v139.038c2.565,0.684,5.315,0.926,8.127,0.924V96.494c0-7.768-3.181-14.807-8.305-19.886h0.209
		c11.486,0,20.831,9.345,20.831,20.832v136.205c2.709,0.181,5.417,0.362,8.127,0.541V97.439
		C414.398,81.472,401.408,68.481,385.441,68.481z"/>
	<path style="fill:#4B31AA;" d="M373.28,85.469H86.112c-2.244,0-4.063,1.819-4.063,4.063v99.04c2.712-0.082,5.421-0.077,8.127-0.003
		V93.596h279.042v153.058H153.988c0.701,2.657,0.908,5.378,0.823,8.127H373.28c2.244,0,4.063-1.819,4.063-4.063V89.533
		C377.343,87.289,375.524,85.469,373.28,85.469z"/>
</g>
<circle style="fill:#E1F0FA;" cx="151.076" cy="170.389" r="54.093"/>
<path style="fill:#13CECE;" d="M152.345,116.327l-1.27,54.061l47.582-25.752C189.693,128.107,172.36,116.79,152.345,116.327z"/>
<path style="fill:#F15A24;" d="M205.169,170.388c0-9.369-2.384-18.18-6.575-25.864l-47.519,25.864l13.363,52.426
	C187.851,216.865,205.169,195.65,205.169,170.388z"/>
<path style="fill:#79A1E8;" d="M484.83,463.21h-99.431c-10.41,0-18.85-8.44-18.85-18.85V253.509c0-10.41,8.44-18.85,18.85-18.85
	h99.431c10.41,0,18.85,8.44,18.85,18.85V444.36C503.679,454.77,495.241,463.21,484.83,463.21z"/>
<path style="fill:#E1F0FA;" d="M467.159,463.21h-99.431c-10.41,0-18.85-8.44-18.85-18.85V253.509c0-10.41,8.44-18.85,18.85-18.85
	h99.431c10.41,0,18.85,8.44,18.85,18.85V444.36C486.009,454.77,477.569,463.21,467.159,463.21z"/>
<path style="fill:#4B31AA;" d="M484.83,230.596H367.728c-12.635,0-22.913,10.278-22.913,22.913V444.36
	c0,12.635,10.278,22.913,22.913,22.913h117.102c12.635,0,22.913-10.278,22.913-22.913V253.509
	C507.743,240.875,497.464,230.596,484.83,230.596z M385.688,459.147h-17.96c-8.153,0-14.787-6.632-14.787-14.787V253.509
	c0-8.153,6.632-14.787,14.787-14.787h15.593c0.088,0.04,0.176,0.084,0.264,0.123c0.595-0.073,1.198-0.123,1.813-0.123h81.76
	c8.153,0,14.787,6.632,14.787,14.787V444.36c0,8.153-6.632,14.787-14.787,14.787L385.688,459.147L385.688,459.147z M499.616,444.36
	c0,8.153-6.632,14.787-14.787,14.787h-0.187c3.383-3.994,5.429-9.155,5.429-14.787V253.509c0-5.632-2.046-10.792-5.429-14.787h0.187
	c8.153,0,14.787,6.632,14.787,14.787V444.36z"/>
<rect x="367.967" y="255.303" style="fill:#FBB03B;" width="98.963" height="183.207"/>
<polygon style="fill:#E59328;" points="367.963,385.739 367.963,438.512 466.923,438.512 466.923,286.779 "/>
<g>
	<path style="fill:#4B31AA;" d="M466.923,442.575h-98.96c-2.244,0-4.063-1.819-4.063-4.063V255.303c0-2.244,1.819-4.063,4.063-4.063
		h98.96c2.244,0,4.063,1.819,4.063,4.063v183.21C470.987,440.756,469.167,442.575,466.923,442.575z M372.027,434.448h90.833V259.367
		h-90.833V434.448z"/>
	<path style="fill:#4B31AA;" d="M393.098,409.703c-2.244,0-4.063-1.819-4.063-4.063v-61.627c0-2.244,1.819-4.063,4.063-4.063
		c2.244,0,4.063,1.819,4.063,4.063v61.627C397.161,407.883,395.342,409.703,393.098,409.703z"/>
	<path style="fill:#4B31AA;" d="M416.399,409.703c-2.244,0-4.063-1.819-4.063-4.063v-94.811c0-2.244,1.819-4.063,4.063-4.063
		c2.244,0,4.063,1.819,4.063,4.063v94.811C420.463,407.883,418.643,409.703,416.399,409.703z"/>
	<path style="fill:#4B31AA;" d="M443.212,409.703c-2.244,0-4.063-1.819-4.063-4.063v-61.627c0-2.244,1.819-4.063,4.063-4.063
		c2.244,0,4.063,1.819,4.063,4.063v61.627C447.276,407.883,445.456,409.703,443.212,409.703z"/>
</g>
<g>
	<path style="fill:#FFFFFF;" d="M347.047,141.861H233.273c-2.244,0-4.063-1.819-4.063-4.063s1.819-4.063,4.063-4.063h113.774
		c2.244,0,4.063,1.819,4.063,4.063S349.291,141.861,347.047,141.861z"/>
	<path style="fill:#FFFFFF;" d="M347.047,170.304H233.273c-2.244,0-4.063-1.819-4.063-4.063s1.819-4.063,4.063-4.063h113.774
		c2.244,0,4.063,1.819,4.063,4.063S349.291,170.304,347.047,170.304z"/>
	<path style="fill:#FFFFFF;" d="M294.9,198.747h-61.627c-2.244,0-4.063-1.819-4.063-4.063s1.819-4.063,4.063-4.063H294.9
		c2.244,0,4.063,1.819,4.063,4.063S297.144,198.747,294.9,198.747z"/>
	<path style="fill:#FFFFFF;" d="M95.701,314.608l48.86-63.774c25.477-33.253,1.768-81.286-40.124-81.286H64.973
		c-41.891,0-65.601,48.033-40.124,81.286l48.86,63.774l-48.86,63.774c-25.477,33.253-1.768,81.286,40.124,81.286h39.464
		c41.891,0,65.601-48.033,40.124-81.286L95.701,314.608z"/>
</g>
<path style="fill:#D7ECF9;" d="M120.637,347.155l-94.439,94.44c8.968,10.82,22.498,18.074,38.776,18.074h39.464
	c41.891,0,65.601-48.033,40.124-81.287L120.637,347.155z"/>
<path style="fill:#F9D015;" d="M113.713,382.666c-5.625-5.625-12.478-9.266-19.694-10.942v-61.311h0.194l25.858-33.75H49.339
	l25.858,33.75h0.195v61.311c-7.217,1.675-14.07,5.316-19.695,10.941L19.092,419.27c4.475,20.682,22.408,38.019,46.909,38.019h37.408
	c24.501,0,42.435-17.335,46.909-38.017L113.713,382.666z"/>
<path style="fill:#E5B900;" d="M113.713,382.666c-5.202-5.202-11.459-8.685-18.078-10.508l-67.103,67.103
	c8.486,10.748,21.597,18.028,37.469,18.028h37.408c24.501,0,42.435-17.335,46.909-38.017L113.713,382.666z"/>
<rect x="38.917" y="437.321" style="fill:#4B31AA;" width="125.801" height="33.995"/>
<rect x="5.401" y="437.321" style="fill:#473CBA;" width="125.801" height="33.995"/>
<path style="fill:#4B31AA;" d="M164.723,433.253h-11.298c9.244-18.766,7.085-40.734-5.639-57.342l-46.967-61.303l46.966-61.304
	c12.734-16.62,14.887-38.609,5.62-57.383c-9.268-18.775-28.031-30.439-48.969-30.439H64.973c-20.937,0-39.701,11.663-48.969,30.439
	c-9.267,18.774-7.114,40.763,5.62,57.383l46.967,61.304l-46.966,61.303c-12.724,16.609-14.884,38.578-5.639,57.342H5.402
	c-2.244,0-4.063,1.819-4.063,4.063v33.995c0,2.244,1.819,4.063,4.063,4.063h159.321c2.244,0,4.063-1.819,4.063-4.063v-33.995
	C168.787,435.072,166.967,433.253,164.723,433.253z M23.292,429.696c-8.008-16.223-6.22-34.482,4.783-48.844l48.861-63.773
	c1.117-1.459,1.118-3.484,0-4.942l-48.861-63.774c-11.003-14.362-12.79-32.621-4.783-48.844
	c8.008-16.224,23.59-25.909,41.681-25.909h39.464c18.092,0,33.673,9.685,41.681,25.909c8.008,16.223,6.22,34.482-4.783,48.844
	l-48.861,63.774c-1.118,1.459-1.118,3.484,0,4.942l48.861,63.773c11.003,14.362,12.79,32.621,4.783,48.844
	c-0.607,1.23-1.275,2.406-1.97,3.556H25.27C24.573,432.102,23.9,430.929,23.292,429.696z M9.466,467.248V441.38H127.14v25.868H9.466
	z M160.66,467.248h-25.393V441.38h25.393V467.248z"/>
<g>
</g>
<g>
</g>
<g>
</g>
<g>
</g>
<g>
</g>
<g>
</g>
<g>
</g>
<g>
</g>
<g>
</g>
<g>
</g>
<g>
</g>
<g>
</g>
<g>
</g>
<g>
</g>
<g>
</g>
</svg>
